<?xml version="1.0" standalone="no"?><!DOCTYPE svg PUBLIC "-//W3C//DTD SVG 1.1//EN" "http://www.w3.org/Graphics/SVG/1.1/DTD/svg11.dtd" ><svg xmlns="http://www.w3.org/2000/svg"><metadata></metadata><defs><font id="fonteditor" horiz-adv-x="1000"><font-face font-family="ùe¹ ~ÆOS" font-weight="400" font-stretch="normal" units-per-em="1000" panose-1="2 11 2 0 0 0 0 0 0 0" ascent="1060" descent="-340" x-height="0" bbox="0 -212 972 831" underline-thickness="0" underline-position="0" unicode-range="U+0028-ff0c" /><missing-glyph horiz-adv-x="1000"  /><glyph glyph-name="parenleft" unicode="(" d="M254 827 Q196 732 160 619 Q117 489 117 360 Q117 233 160 101 Q197 -14 254 -107 L215 -107 Q158 -13 121 100 Q79 234 79 360 Q79 487 121 619 Q157 734 215 827 L254 827 Z" /><glyph glyph-name="parenright" unicode=")" d="M118 827 Q177 728 212 619 Q254 487 254 360 Q254 234 212 100 Q177 -7 118 -107 L79 -107 Q137 -8 173 101 Q216 238 216 360 Q216 484 173 619 Q139 727 79 827 L118 827 Z" /><glyph glyph-name="comma" unicode="," d="M124 79 Q172 79 172 14 Q172 -94 87 -141 L70 -115 Q135 -70 138 1 L125 0 Q107 0 95 10 Q84 20 84 39 Q84 59 94 69 Q105 79 124 79 Z" /><glyph glyph-name="hyphen" unicode="-" d="M50 277 L555 277 L555 241 L50 241 L50 277 Z" /><glyph glyph-name="period" unicode="." d="M125 80 Q142 80 154 68 Q165 57 165 40 Q165 24 153 12 Q141 0 125 0 Q108 0 97 12 Q85 24 85 40 Q85 58 97 68 Q108 80 125 80 Z" /><glyph glyph-name="slash" unicode="/" d="M413 820 L450 820 L87 -100 L50 -100 L413 820 Z" /><glyph glyph-name="zero" unicode="0" d="M300 728 Q431 728 491 605 Q537 510 537 357 Q537 206 491 109 Q431 -14 300 -14 Q169 -14 109 109 Q63 201 63 357 Q63 513 109 605 Q169 728 300 728 ZM300 692 Q190 692 140 581 Q102 501 102 357 Q102 215 140 133 Q190 22 300 22 Q409 22 460 133 Q499 217 499 357 Q499 497 460 581 Q409 692 300 692 Z" /><glyph glyph-name="one" unicode="1" d="M339 714 L339 0 L300 0 L300 664 Q228 581 125 552 L125 593 Q174 607 223 639 Q268 669 304 714 L339 714 Z" /><glyph glyph-name="two" unicode="2" d="M308 728 Q402 728 463 674 Q524 619 524 529 Q524 435 453 361 Q421 327 305 247 Q136 132 121 37 L525 37 L525 0 L75 0 Q75 85 146 162 Q191 213 290 282 Q394 357 420 383 Q485 451 485 529 Q485 604 435 648 Q388 692 308 692 Q224 692 176 638 Q122 581 122 475 L84 475 Q84 596 148 663 Q207 728 308 728 Z" /><glyph glyph-name="three" unicode="3" d="M307 728 Q403 728 462 676 Q521 623 521 539 Q521 412 406 373 Q467 353 501 309 Q536 263 536 201 Q536 106 470 46 Q404 -14 301 -14 Q213 -14 151 33 Q73 93 64 213 L103 213 Q109 112 175 61 Q229 21 301 21 Q389 21 443 72 Q497 123 497 200 Q497 270 448 313 Q401 356 320 356 L252 356 L252 390 L312 390 Q395 390 438 429 Q482 467 482 537 Q482 605 436 648 Q389 692 307 692 Q225 692 178 645 Q130 600 119 517 L81 517 Q92 615 152 672 Q209 728 307 728 Z" /><glyph glyph-name="four" unicode="4" d="M404 714 L444 714 L444 207 L572 207 L572 172 L444 172 L444 0 L406 0 L406 172 L29 172 L29 211 L404 714 ZM403 658 L68 207 L406 207 L406 658 L403 658 Z" /><glyph glyph-name="five" unicode="5" d="M120 714 L512 714 L512 677 L154 677 L127 387 L130 387 Q161 427 210 448 Q253 468 306 468 Q409 468 471 406 Q536 341 536 226 Q536 123 468 53 Q399 -14 296 -14 Q207 -14 143 36 Q72 90 64 186 L104 186 Q110 108 168 62 Q221 21 296 21 Q383 21 441 79 Q498 139 498 226 Q498 325 442 381 Q389 433 301 433 Q244 433 196 406 Q147 378 123 329 L85 329 L120 714 Z" /><glyph glyph-name="eight" unicode="8" d="M300 728 Q407 728 466 673 Q520 625 520 547 Q520 489 489 446 Q457 402 397 384 L397 380 Q462 368 503 316 Q546 262 546 192 Q546 103 485 45 Q418 -14 300 -14 Q180 -14 115 45 Q54 102 54 192 Q54 264 97 316 Q138 368 204 380 L204 384 Q143 402 111 446 Q80 487 80 547 Q80 625 134 673 Q192 728 300 728 ZM300 693 Q207 693 160 647 Q118 608 118 546 Q118 483 159 445 Q207 399 300 399 Q392 399 441 445 Q482 484 482 546 Q482 608 440 647 Q393 693 300 693 ZM300 364 Q200 364 144 313 Q93 267 93 192 Q93 117 142 71 Q196 20 300 20 Q404 20 459 71 Q507 118 507 192 Q507 267 456 313 Q399 364 300 364 Z" /><glyph glyph-name="at" unicode="@" d="M433 728 Q585 728 674 639 Q763 552 763 415 Q763 307 695 222 Q631 146 563 146 Q502 146 499 217 Q439 143 361 143 Q302 143 267 183 Q233 223 233 284 Q233 406 304 486 Q370 564 459 564 Q539 564 561 482 L578 545 L613 545 L538 262 Q530 235 530 209 Q530 179 565 179 Q615 179 670 243 Q730 317 730 415 Q730 537 650 615 Q566 696 432 696 Q287 696 189 598 Q90 501 90 355 Q90 199 184 108 Q277 18 425 18 Q538 18 630 64 Q707 104 754 171 L793 171 Q740 88 648 39 Q548 -14 425 -14 Q262 -14 159 86 Q54 188 54 356 Q54 513 164 619 Q273 728 433 728 ZM462 530 Q388 530 331 463 Q268 391 268 283 Q268 235 294 206 Q318 176 362 176 Q411 176 458 217 Q500 256 512 298 L537 391 Q546 424 546 435 Q546 467 527 495 Q504 530 462 530 Z" /><glyph glyph-name="A" unicode="a" d="M291 714 L339 714 L629 0 L586 0 L496 226 L135 226 L44 0 L0 0 L291 714 ZM149 262 L482 262 L317 672 L314 672 L149 262 Z" /><glyph glyph-name="C" unicode="c" d="M381 728 Q489 728 570 668 Q657 605 669 501 L631 501 Q619 588 545 641 Q474 691 381 691 Q242 691 159 592 Q83 498 83 353 Q83 209 159 118 Q237 23 372 23 Q468 23 541 76 Q620 137 641 242 L679 242 Q655 119 567 49 Q485 -14 372 -14 Q220 -14 129 95 Q44 196 44 353 Q44 511 130 615 Q221 728 381 728 Z" /><glyph glyph-name="D" unicode="d" d="M74 714 L325 714 Q491 714 571 613 Q646 523 646 357 Q646 197 560 100 Q469 0 307 0 L74 0 L74 714 ZM113 678 L113 36 L303 36 Q450 36 530 124 Q607 210 607 357 Q607 510 543 591 Q471 678 322 678 L113 678 Z" /><glyph glyph-name="G" unicode="g" d="M373 728 Q502 728 581 659 Q654 595 674 480 L634 480 Q616 577 553 631 Q484 691 373 691 Q237 691 158 591 Q83 498 83 353 Q83 208 160 119 Q243 22 393 22 Q457 22 525 42 Q590 62 629 91 L629 316 L363 316 L363 352 L668 352 L668 72 Q620 34 548 10 Q470 -14 390 -14 Q224 -14 130 95 Q44 194 44 353 Q44 511 128 614 Q218 728 373 728 Z" /><glyph glyph-name="H" unicode="h" d="M74 714 L113 714 L113 389 L588 389 L588 714 L627 714 L627 0 L588 0 L588 353 L113 353 L113 0 L74 0 L74 714 Z" /><glyph glyph-name="I" unicode="i" d="M87 714 L126 714 L126 0 L87 0 L87 714 Z" /><glyph glyph-name="K" unicode="k" d="M562 714 L617 714 L284 410 L662 0 L608 0 L256 385 L113 254 L113 0 L74 0 L74 714 L113 714 L113 301 L562 714 Z" /><glyph glyph-name="M" unicode="m" d="M74 714 L133 714 L427 46 L430 46 L723 714 L782 714 L782 0 L743 0 L743 661 L740 661 L449 0 L407 0 L116 661 L113 661 L113 0 L74 0 L74 714 Z" /><glyph glyph-name="P" unicode="p" d="M74 714 L362 714 Q591 714 591 515 Q591 314 361 314 L113 314 L113 0 L74 0 L74 714 ZM113 678 L113 350 L360 350 Q457 350 506 393 Q552 434 552 515 Q552 596 506 636 Q458 678 360 678 L113 678 Z" /><glyph glyph-name="R" unicode="r" d="M74 714 L370 714 Q474 714 533 664 Q592 614 592 522 Q592 456 556 408 Q520 361 452 346 L452 344 Q567 320 577 209 L586 105 Q592 38 617 0 L574 0 Q554 35 548 98 L539 201 Q533 270 485 300 Q443 327 369 327 L113 327 L113 0 L74 0 L74 714 ZM113 678 L113 363 L368 363 Q458 363 507 408 Q553 451 553 521 Q553 597 510 637 Q463 678 367 678 L113 678 Z" /><glyph glyph-name="S" unicode="s" d="M300 728 Q416 728 481 669 Q550 610 559 503 L520 503 Q509 594 454 643 Q398 692 299 692 Q203 692 150 657 Q89 620 89 546 Q89 481 164 442 Q196 424 307 394 Q440 358 489 328 Q576 276 576 179 Q576 89 499 36 Q425 -14 310 -14 Q190 -14 120 45 Q43 110 34 236 L72 236 Q81 129 147 73 Q208 23 309 23 Q410 23 473 65 Q537 108 537 178 Q537 257 461 301 Q420 326 296 359 Q168 396 132 415 Q50 461 50 545 Q50 637 127 684 Q192 728 300 728 Z" /><glyph glyph-name="T" unicode="t" d="M19 714 L604 714 L604 678 L332 678 L332 0 L293 0 L293 678 L19 678 L19 714 Z" /><glyph glyph-name="U" unicode="u" d="M74 714 L113 714 L113 278 Q113 154 166 92 Q224 22 344 22 Q465 22 523 92 Q576 156 576 278 L576 714 L615 714 L615 279 Q615 140 552 66 Q484 -14 344 -14 Q205 -14 137 65 Q74 140 74 279 L74 714 Z" /><glyph glyph-name="V" unicode="v" d="M5 714 L50 714 L306 38 L308 38 L565 714 L609 714 L334 0 L281 0 L5 714 Z" /><glyph glyph-name="a" unicode="a" d="M277 531 Q383 531 435 471 Q479 421 479 334 L479 0 L442 0 L442 111 Q410 65 355 28 Q289 -14 212 -14 Q138 -14 91 24 Q44 64 44 130 Q44 229 127 273 Q191 308 302 308 L441 309 L441 330 Q441 496 276 496 Q202 496 157 463 Q107 428 98 363 L60 363 Q72 447 131 490 Q185 531 277 531 ZM441 275 L303 274 Q83 273 83 129 Q83 80 120 50 Q157 21 219 21 Q303 21 374 80 Q441 139 441 200 L441 275 Z" /><glyph glyph-name="b" unicode="b" d="M64 728 L103 728 L103 392 Q157 531 294 531 Q402 531 465 447 Q522 372 522 258 Q522 145 466 69 Q403 -14 293 -14 Q154 -14 101 121 L101 0 L64 0 L64 728 ZM290 496 Q200 496 150 428 Q102 364 102 263 L102 250 Q102 151 149 89 Q199 21 291 21 Q383 21 436 91 Q483 156 483 258 Q483 362 435 425 Q383 496 290 496 Z" /><glyph glyph-name="c" unicode="c" d="M277 531 Q366 531 423 486 Q480 441 492 350 L454 350 Q444 422 398 459 Q351 496 277 496 Q188 496 134 426 Q83 360 83 253 Q83 148 132 86 Q182 21 276 21 Q430 21 457 182 L495 182 Q480 87 423 36 Q365 -14 276 -14 Q163 -14 101 64 Q44 136 44 253 Q44 372 104 448 Q166 531 277 531 Z" /><glyph glyph-name="d" unicode="d" d="M463 728 L502 728 L502 0 L465 0 L465 121 Q411 -14 272 -14 Q162 -14 100 69 Q44 143 44 258 Q44 372 101 447 Q163 531 271 531 Q409 531 463 393 L463 728 ZM276 496 Q181 496 131 425 Q83 362 83 258 Q83 154 130 91 Q182 21 275 21 Q366 21 417 89 Q464 153 464 250 L464 263 Q464 364 416 428 Q364 496 276 496 Z" /><glyph glyph-name="e" unicode="e" d="M269 531 Q389 531 449 449 Q500 379 506 246 L74 246 Q77 142 129 83 Q183 21 270 21 Q347 21 396 64 Q436 101 454 166 L495 166 Q477 91 427 42 Q365 -14 270 -14 Q162 -14 99 61 Q34 136 34 259 Q34 372 96 449 Q162 531 269 531 ZM270 496 Q184 496 132 435 Q80 374 74 280 L466 280 Q450 496 270 496 Z" /><glyph glyph-name="f" unicode="f" d="M362 714 L362 678 L278 678 Q231 678 211 655 Q191 634 191 580 L191 517 L355 517 L355 482 L191 482 L191 0 L153 0 L153 482 L5 482 L5 517 L153 517 L153 580 Q153 646 182 678 Q212 714 276 714 L362 714 Z" /><glyph glyph-name="g" unicode="g" d="M276 531 Q417 531 474 397 L474 517 L513 517 L513 40 Q513 -212 286 -212 Q186 -212 132 -167 Q80 -124 68 -44 L106 -44 Q118 -107 158 -140 Q204 -177 286 -177 Q474 -177 474 37 L474 145 Q417 12 276 12 Q167 12 102 91 Q44 164 44 271 Q44 380 102 451 Q166 531 276 531 ZM279 496 Q185 496 133 428 Q83 368 83 271 Q83 179 131 116 Q184 47 279 47 Q370 47 425 114 Q474 178 474 271 Q474 365 425 428 Q372 496 279 496 Z" /><glyph glyph-name="h" unicode="h" d="M64 728 L103 728 L103 413 Q130 468 177 500 Q221 531 279 531 Q365 531 416 480 Q467 428 467 333 L467 0 L429 0 L429 330 Q429 409 386 454 Q344 496 272 496 Q203 496 154 440 Q103 383 103 302 L103 0 L64 0 L64 728 Z" /><glyph glyph-name="i" unicode="i" d="M117 693 Q133 693 145 681 Q157 671 157 653 Q157 637 145 625 Q133 613 117 613 Q100 613 89 625 Q77 637 77 653 Q77 671 89 681 Q100 693 117 693 ZM98 517 L136 517 L136 0 L98 0 L98 517 Z" /><glyph glyph-name="k" unicode="k" d="M64 728 L103 728 L103 234 L420 517 L476 517 L249 316 L499 0 L448 0 L221 290 L103 184 L103 0 L64 0 L64 728 Z" /><glyph glyph-name="l" unicode="l" d="M87 728 L125 728 L125 0 L87 0 L87 728 Z" /><glyph glyph-name="m" unicode="m" d="M256 531 Q382 531 418 416 Q442 470 485 500 Q526 531 582 531 Q664 531 710 481 Q756 430 756 338 L756 0 L718 0 L718 335 Q718 414 685 453 Q649 496 575 496 Q512 496 472 449 Q430 404 430 334 L430 0 L391 0 L391 335 Q391 496 251 496 Q188 496 146 445 Q103 396 103 322 L103 0 L64 0 L64 517 L103 517 L103 429 Q154 531 256 531 Z" /><glyph glyph-name="n" unicode="n" d="M277 531 Q468 531 468 317 L468 0 L429 0 L429 316 Q429 496 271 496 Q201 496 154 445 Q106 396 103 313 L103 0 L64 0 L64 517 L103 517 L103 423 Q126 471 173 502 Q218 531 277 531 Z" /><glyph glyph-name="o" unicode="o" d="M285 531 Q398 531 465 446 Q526 370 526 258 Q526 149 465 70 Q398 -14 285 -14 Q171 -14 105 70 Q44 147 44 258 Q44 372 105 446 Q171 531 285 531 ZM285 496 Q189 496 134 423 Q83 357 83 258 Q83 160 134 94 Q190 21 285 21 Q378 21 436 94 Q487 160 487 258 Q487 357 436 423 Q379 496 285 496 Z" /><glyph glyph-name="p" unicode="p" d="M293 531 Q402 531 465 447 Q522 372 522 258 Q522 145 466 69 Q404 -14 294 -14 Q157 -14 103 122 L103 -198 L64 -198 L64 517 L101 517 L101 396 Q160 531 293 531 ZM291 496 Q199 496 149 425 Q102 363 102 261 L102 249 Q102 150 150 87 Q201 21 290 21 Q384 21 435 90 Q482 155 482 258 Q482 360 435 424 Q384 496 291 496 Z" /><glyph glyph-name="r" unicode="r" d="M270 531 Q321 531 350 521 L350 480 Q308 492 268 492 Q189 492 143 419 Q103 357 103 273 L103 0 L64 0 L64 517 L103 517 L103 409 Q122 459 163 492 Q210 531 270 531 Z" /><glyph glyph-name="s" unicode="s" d="M232 531 Q408 531 432 374 L394 374 Q384 432 348 462 Q307 496 232 496 Q168 496 130 468 Q88 441 88 399 Q88 354 137 327 Q169 310 248 289 Q344 265 383 242 Q446 206 446 140 Q446 -14 245 -14 Q52 -14 34 160 L73 160 Q82 84 126 52 Q166 21 245 21 Q407 21 407 139 Q407 190 353 217 Q326 232 233 256 Q142 280 107 302 Q50 337 50 398 Q50 459 104 495 Q157 531 232 531 Z" /><glyph glyph-name="t" unicode="t" d="M174 684 L174 517 L317 517 L317 482 L174 482 L174 109 Q174 67 188 52 Q200 35 240 35 L305 35 L305 0 L237 0 Q179 0 156 29 Q136 55 136 109 L136 482 L19 482 L19 517 L136 517 L136 667 L174 684 Z" /><glyph glyph-name="u" unicode="u" d="M64 517 L103 517 L103 200 Q103 112 140 68 Q179 21 261 21 Q331 21 379 72 Q427 123 430 204 L430 517 L468 517 L468 0 L430 0 L430 96 Q371 -14 254 -14 Q64 -14 64 199 L64 517 Z" /><glyph glyph-name="w" unicode="w" d="M5 517 L48 517 L203 54 L344 517 L384 517 L525 54 L680 517 L723 517 L544 0 L506 0 L365 463 L222 0 L184 0 L5 517 Z" /><glyph glyph-name="y" unicode="y" d="M5 517 L48 517 L230 61 L410 517 L454 517 L167 -198 L124 -198 L210 13 L5 517 Z" /><glyph glyph-name="uni3001" unicode="&#x3001;" d="M171 126 Q214 96 278 31 Q329 -23 359 -65 L332 -89 Q302 -46 252 7 Q196 67 147 102 L171 126 Z" /><glyph glyph-name="uni3002" unicode="&#x3002;" d="M250 130 Q299 130 333 97 Q368 64 368 15 Q368 -33 333 -66 Q299 -99 250 -99 Q201 -99 167 -67 Q132 -33 132 15 Q132 66 167 97 Q200 130 250 130 ZM250 99 Q213 99 189 75 Q164 51 164 15 Q164 -19 189 -43 Q213 -67 250 -67 Q284 -67 311 -43 Q336 -18 336 15 Q336 49 311 74 Q285 99 250 99 Z" /><glyph glyph-name="uniFF01" unicode="&#xff01;" d="M229 714 L271 714 L267 177 L233 177 L229 714 ZM250 80 Q267 80 279 68 Q290 57 290 40 Q290 25 279 12 Q267 0 250 0 Q233 0 221 12 Q210 23 210 40 Q210 58 221 68 Q233 80 250 80 Z" /><glyph glyph-name="uniFF0C" unicode="&#xff0c;" d="M175 79 Q223 79 223 14 Q223 -94 138 -141 L121 -115 Q186 -70 189 1 L176 0 Q158 0 146 10 Q135 20 135 39 Q135 59 145 69 Q156 79 175 79 Z" /><glyph glyph-name="uni2F00" unicode="&#x2f00;&#x4e00;" d="M55 384 L944 384 L944 350 L55 350 L55 384 Z" /><glyph glyph-name="uni4E07" unicode="&#x4e07;" d="M67 731 L933 731 L933 698 L409 698 L409 658 Q409 545 397 449 L824 449 Q821 69 785 -6 Q748 -81 656 -81 L543 -80 L534 -46 Q603 -49 647 -49 Q738 -46 762 28 Q784 101 790 415 L393 415 Q371 271 328 172 Q251 2 75 -95 L56 -65 Q226 28 305 203 Q373 376 375 658 L375 698 L67 698 L67 731 Z" /><glyph glyph-name="uni4E0B" unicode="&#x4e0b;" d="M60 747 L939 747 L939 713 L490 713 L490 530 Q677 430 879 293 L859 263 Q637 417 490 495 L490 -99 L457 -99 L457 713 L60 713 L60 747 Z" /><glyph glyph-name="uni4E0D" unicode="&#x4e0d;" d="M84 749 L916 749 L916 715 L585 715 Q553 641 518 584 L518 -98 L482 -98 L482 529 Q337 324 81 171 L59 200 Q420 413 548 715 L84 715 L84 749 ZM643 487 Q826 340 942 200 L917 174 Q803 314 618 463 L643 487 Z" /><glyph glyph-name="uni4E13" unicode="&#x4e13;" d="M56 492 L349 492 Q370 565 391 652 L124 652 L124 685 L398 685 Q419 777 426 816 L460 813 L433 685 L885 685 L885 652 L426 652 Q400 546 385 492 L944 492 L944 458 L375 458 Q347 364 318 292 L817 292 L817 262 Q738 131 570 9 Q677 -34 770 -81 L751 -110 Q518 9 275 78 L294 105 Q414 71 535 23 Q693 133 780 259 L271 259 Q310 364 339 458 L56 458 L56 492 Z" /><glyph glyph-name="uni4E16" unicode="&#x4e16;" d="M54 561 L194 561 L194 800 L229 800 L229 561 L472 561 L472 809 L506 809 L506 561 L747 561 L747 809 L780 809 L780 561 L945 561 L945 528 L780 528 L780 213 L472 213 L472 528 L229 528 L229 -19 L911 -19 L911 -53 L194 -53 L194 528 L54 528 L54 561 ZM506 528 L506 247 L747 247 L747 528 L506 528 Z" /><glyph glyph-name="uni4E24" unicode="&#x4e24;" d="M63 755 L937 755 L937 721 L654 721 L654 530 L880 530 L880 -8 Q880 -86 806 -86 L705 -86 L695 -52 L794 -54 Q845 -54 845 -1 L845 497 L653 497 Q650 438 644 391 Q724 270 799 126 L779 96 Q699 260 639 353 Q604 155 500 46 L475 68 Q608 207 620 497 L374 497 Q371 435 362 381 Q430 289 492 183 L473 155 Q402 282 356 345 Q322 169 228 68 L202 91 Q327 224 342 497 L155 497 L155 -91 L120 -91 L120 530 L343 530 L344 548 L344 721 L63 721 L63 755 ZM376 530 L621 530 L621 721 L377 721 L377 548 L376 530 Z" /><glyph glyph-name="uni4E2A" unicode="&#x4e2a;" d="M483 520 L517 520 L517 -94 L483 -94 L483 520 ZM516 810 Q645 596 958 431 L938 401 Q643 554 500 778 Q325 527 62 393 L42 424 Q327 572 484 810 L516 810 Z" /><glyph glyph-name="uni4E30" unicode="&#x4e30;" d="M151 427 L483 427 L483 625 L105 625 L105 659 L483 659 L483 810 L517 810 L517 659 L903 659 L903 625 L517 625 L517 427 L857 427 L857 393 L517 393 L517 196 L927 196 L927 163 L517 163 L517 -94 L483 -94 L483 163 L76 163 L76 196 L483 196 L483 393 L151 393 L151 427 Z" /><glyph glyph-name="uni4E50" unicode="&#x4e50;" d="M123 372 Q170 573 189 726 Q207 724 217 724 Q584 725 814 798 L831 768 Q595 698 217 695 Q191 526 162 406 L491 406 L491 613 L525 613 L525 406 L905 406 L905 372 L525 372 L525 -7 Q525 -91 448 -91 L316 -91 L309 -58 Q397 -60 436 -60 Q491 -60 491 2 L491 372 L123 372 ZM287 260 Q204 80 94 -49 L65 -29 Q175 96 257 275 L287 260 ZM718 281 Q820 130 903 -43 L873 -59 Q787 122 687 266 L718 281 Z" /><glyph glyph-name="uni4E5F" unicode="&#x4e5f;" d="M503 816 L536 816 L536 563 L837 631 Q837 366 832 301 Q820 189 715 189 L667 189 L657 222 L721 221 Q790 221 802 321 Q804 365 804 587 L536 527 L536 147 L503 147 L503 520 L251 463 L251 58 Q251 -29 331 -29 L780 -29 Q846 -29 876 -5 Q905 23 914 174 L945 164 Q934 4 903 -30 Q870 -63 786 -63 L323 -63 Q218 -63 218 53 L218 456 L44 417 L44 451 L218 491 L218 737 L251 737 L251 498 L503 555 L503 816 Z" /><glyph glyph-name="uni4E70" unicode="&#x4e70;" d="M144 485 Q261 437 357 368 L340 340 Q234 418 126 460 L144 485 ZM240 630 Q350 578 436 508 L418 479 Q321 561 224 605 L240 630 ZM541 648 L574 648 L574 439 Q572 338 549 260 L940 260 L940 226 L538 226 Q527 197 509 165 Q735 58 915 -67 L892 -92 Q700 39 492 138 Q472 110 461 97 Q353 -23 104 -92 L84 -62 Q330 4 441 124 Q477 169 502 226 L77 226 L77 260 L514 260 Q539 341 541 439 L541 648 ZM119 742 L863 742 L863 719 Q840 625 802 538 L769 548 Q806 623 828 709 L119 709 L119 742 Z" /><glyph glyph-name="uni4EA4" unicode="&#x4ea4;" d="M63 680 L501 680 Q470 755 435 811 L472 818 Q508 752 536 680 L938 680 L938 647 L63 647 L63 680 ZM647 588 Q814 453 925 316 L900 292 Q791 425 623 566 L647 588 ZM718 391 Q644 246 529 140 Q698 8 945 -58 L925 -89 Q667 -16 503 117 Q333 -28 81 -94 L61 -64 Q315 2 477 138 Q355 243 282 379 L312 396 Q385 260 503 161 Q616 265 686 405 L718 391 ZM373 565 Q256 415 92 306 L70 334 Q232 440 348 588 L373 565 Z" /><glyph glyph-name="uni4EA7" unicode="&#x4ea7;" d="M486 826 Q516 771 540 698 L899 698 L899 665 L716 665 Q697 568 656 477 L920 477 L920 444 L188 444 L188 276 Q182 44 76 -95 L51 -72 Q149 54 153 276 L153 477 L361 477 L311 665 L119 665 L119 698 L506 698 Q479 771 451 820 L486 826 ZM396 477 L621 477 Q665 564 682 665 L345 665 L396 477 Z" /><glyph glyph-name="uni2F08" unicode="&#x2f08;&#x4eba;" d="M520 810 Q520 697 513 590 Q597 166 956 -55 L934 -84 Q592 137 502 510 Q427 148 63 -84 L42 -54 Q468 213 483 647 L485 810 L520 810 Z" /><glyph glyph-name="uni4ECB" unicode="&#x4ecb;" d="M651 475 L685 475 L685 -87 L651 -87 L651 475 ZM312 472 L346 472 L346 296 Q342 29 164 -94 L139 -71 Q309 43 312 296 L312 472 ZM512 809 Q698 577 944 441 L928 412 Q678 549 500 777 Q337 560 73 403 L58 432 Q319 587 488 809 L512 809 Z" /><glyph glyph-name="uni4EEC" unicode="&#x4eec;" d="M721 -89 L712 -56 L816 -57 Q870 -57 870 8 L870 701 L608 701 L608 734 L904 734 L904 -1 Q904 -89 823 -89 L721 -89 ZM442 811 Q518 719 560 648 L533 628 Q489 705 415 794 L442 811 ZM321 800 Q278 673 218 569 L218 -98 L184 -98 L184 514 Q124 424 51 348 L40 383 Q214 575 290 814 L321 800 ZM376 642 L410 642 L410 -94 L376 -94 L376 642 Z" /><glyph glyph-name="uni4EF6" unicode="&#x4ef6;" d="M313 801 Q269 672 212 571 L212 -97 L179 -97 L179 516 Q120 424 46 347 L35 383 Q207 576 282 815 L313 801 ZM482 754 Q467 664 443 590 L634 590 L634 811 L668 811 L668 590 L913 590 L913 556 L668 556 L668 275 L949 275 L949 242 L668 242 L668 -91 L634 -91 L634 242 L322 242 L322 275 L634 275 L634 556 L431 556 Q392 454 335 373 L314 400 Q411 545 448 758 L482 754 Z" /><glyph glyph-name="uni4EF7" unicode="&#x4ef7;" d="M187 531 Q132 440 56 356 L45 391 Q205 576 273 806 L305 792 Q269 684 221 591 L221 -96 L187 -96 L187 531 ZM733 466 L767 466 L767 -86 L733 -86 L733 466 ZM467 463 L500 463 L500 309 Q497 34 351 -94 L325 -72 Q464 48 467 309 L467 463 ZM625 809 Q723 596 959 438 L940 409 Q720 556 610 774 Q484 530 292 396 L273 425 Q482 573 596 809 L625 809 Z" /><glyph glyph-name="uni4F18" unicode="&#x4f18;" d="M191 522 Q128 424 49 341 L39 375 Q215 570 288 810 L319 795 Q279 678 226 581 L226 -96 L191 -96 L191 522 ZM322 555 L531 555 Q533 607 533 633 L533 809 L567 809 L567 633 L564 555 L923 555 L923 521 L707 521 L707 -18 Q707 -48 739 -48 L843 -48 Q869 -48 883 -31 Q903 -2 908 149 L940 139 Q934 -12 909 -53 Q891 -78 852 -80 L730 -80 Q674 -80 674 -25 L674 521 L562 521 Q532 110 316 -91 L291 -70 Q500 123 529 521 L322 521 L322 555 ZM706 787 Q802 720 870 646 L846 622 Q783 691 684 765 L706 787 Z" /><glyph glyph-name="uni4F1A" unicode="&#x4f1a;" d="M512 810 Q705 587 957 458 L939 426 Q684 562 500 779 Q331 574 57 425 L40 457 Q308 597 488 810 L512 810 ZM261 493 L742 493 L742 459 L261 459 L261 493 ZM104 291 L898 291 L898 257 L419 257 Q339 93 215 -38 Q506 -22 762 18 Q704 97 630 184 L657 201 Q792 44 865 -75 L838 -96 Q813 -55 781 -8 Q550 -47 175 -71 L165 -40 Q177 -35 183 -31 Q308 110 382 257 L104 257 L104 291 Z" /><glyph glyph-name="uni4F5C" unicode="&#x4f5c;" d="M467 624 Q399 480 301 363 L277 390 Q426 566 504 815 L537 807 Q515 736 482 657 L947 657 L947 624 L585 624 L585 422 L897 422 L897 388 L585 388 L585 183 L909 183 L909 150 L585 150 L585 -95 L551 -95 L551 624 L467 624 ZM184 518 Q122 429 54 361 L43 396 Q216 581 292 811 L323 796 Q281 675 218 571 L218 -95 L184 -95 L184 518 Z" /><glyph glyph-name="uni4F60" unicode="&#x4f60;" d="M185 513 Q124 415 50 334 L39 369 Q211 569 284 815 L315 800 Q276 680 220 574 L220 -96 L185 -96 L185 513 ZM781 415 Q868 225 929 24 L898 11 Q831 230 749 404 L781 415 ZM453 643 Q404 524 332 417 L303 435 Q420 602 477 820 L511 813 Q491 743 466 677 L904 677 L904 654 Q881 562 837 466 L804 476 Q846 557 869 643 L453 643 ZM459 -88 L452 -55 Q520 -58 582 -58 Q622 -58 622 -18 L622 540 L655 540 L655 -27 Q655 -88 594 -88 L459 -88 ZM491 401 Q434 189 343 28 L310 40 Q396 183 460 410 L491 401 Z" /><glyph glyph-name="uni4F73" unicode="&#x4f73;" d="M384 674 L612 674 L612 813 L646 813 L646 674 L877 674 L877 640 L646 640 L646 454 L933 454 L933 420 L328 420 L328 454 L612 454 L612 640 L384 640 L384 674 ZM369 220 L612 220 L612 378 L646 378 L646 220 L891 220 L891 186 L646 186 L646 -26 L950 -26 L950 -60 L309 -60 L309 -26 L612 -26 L612 186 L369 186 L369 220 ZM184 513 Q127 428 55 354 L44 389 Q216 576 292 811 L323 796 Q280 671 218 567 L218 -94 L184 -94 L184 513 Z" /><glyph glyph-name="uni4F7F" unicode="&#x4f7f;" d="M341 697 L624 697 L624 812 L657 812 L657 697 L944 697 L944 664 L657 664 L657 543 L899 543 L899 283 L654 283 Q642 131 594 50 Q756 -50 972 -62 L963 -94 Q741 -82 576 23 Q501 -69 316 -99 L301 -67 Q475 -43 546 42 Q448 110 372 208 L399 227 Q470 132 565 68 Q611 147 621 283 L385 283 L385 543 L624 543 L624 664 L341 664 L341 697 ZM865 315 L865 511 L657 511 L657 340 L656 315 L865 315 ZM623 315 L624 511 L418 511 L418 315 L623 315 ZM180 519 Q120 420 46 337 L35 373 Q201 569 274 816 L306 801 Q265 678 215 581 L215 -98 L180 -98 L180 519 Z" /><glyph glyph-name="uni4FC3" unicode="&#x4fc3;" d="M175 510 Q119 419 56 348 L45 384 Q203 576 269 808 L301 795 Q264 674 208 568 L208 -98 L175 -98 L175 510 ZM390 763 L878 763 L878 469 L664 469 L664 279 L913 279 L913 246 L664 246 L664 -30 Q719 -41 819 -44 L955 -43 L948 -76 L836 -76 Q644 -76 575 -33 Q472 24 419 170 Q370 10 291 -96 L269 -69 Q389 96 431 378 L464 372 Q450 288 433 221 Q457 136 497 80 Q547 12 613 -15 L631 -22 L631 469 L390 469 L390 763 ZM844 502 L844 730 L423 730 L423 502 L844 502 Z" /><glyph glyph-name="uni4FE1" unicode="&#x4fe1;" d="M173 525 Q116 430 46 350 L35 386 Q195 581 264 820 L296 805 Q260 685 206 584 L206 -98 L173 -98 L173 525 ZM313 662 L955 662 L955 628 L313 628 L313 662 ZM407 515 L867 515 L867 483 L407 483 L407 515 ZM407 374 L867 374 L867 341 L407 341 L407 374 ZM881 228 L881 -95 L847 -95 L847 -37 L428 -37 L428 -95 L393 -95 L393 228 L881 228 ZM428 -4 L847 -4 L847 195 L428 195 L428 -4 ZM615 815 Q649 754 667 700 L637 688 Q614 750 582 805 L615 815 Z" /><glyph glyph-name="uni2F09" unicode="&#x2f09;&#x513f;" d="M305 788 L338 788 L338 474 Q332 85 90 -93 L64 -70 Q301 101 305 474 L305 788 ZM686 -63 Q601 -63 601 24 L601 789 L636 789 L636 31 Q636 -29 697 -29 L804 -29 Q855 -29 877 -7 Q905 24 914 166 L946 156 Q937 5 901 -34 Q874 -63 810 -63 L686 -63 Z" /><glyph glyph-name="uni514D" unicode="&#x514d;" d="M193 528 L508 528 Q595 596 667 681 L320 681 Q217 564 78 477 L57 504 Q266 633 377 816 L412 808 Q386 764 347 713 L711 713 L711 686 Q631 589 554 528 L830 528 L830 255 L599 255 L599 14 Q599 -43 652 -43 L827 -43 Q863 -43 879 -24 Q899 4 905 131 L938 120 Q931 -14 903 -51 Q882 -77 834 -77 L642 -77 Q565 -77 565 7 L565 255 L484 255 Q470 216 459 192 Q370 16 81 -92 L60 -64 Q324 32 418 187 Q437 225 447 255 L193 255 L193 528 ZM797 289 L797 495 L520 495 Q517 376 494 289 L797 289 ZM458 289 Q483 381 486 495 L227 495 L227 289 L458 289 Z" /><glyph glyph-name="uni2F0A" unicode="&#x2f0a;&#x5165;" d="M474 593 Q403 725 302 793 L331 812 Q478 710 562 475 Q702 105 950 -49 L929 -78 Q675 80 528 471 Q512 516 495 552 Q399 137 68 -80 L47 -52 Q381 167 474 593 Z" /><glyph glyph-name="uni5168" unicode="&#x5168;" d="M512 803 Q706 596 952 481 L935 452 Q682 574 500 771 Q332 580 61 443 L45 473 Q311 605 488 803 L512 803 ZM222 480 L780 480 L780 447 L517 447 L517 235 L821 235 L821 202 L517 202 L517 -27 L912 -27 L912 -61 L89 -61 L89 -27 L483 -27 L483 202 L178 202 L178 235 L483 235 L483 447 L222 447 L222 480 Z" /><glyph glyph-name="uni516C" unicode="&#x516c;" d="M389 789 Q270 471 78 307 L52 330 Q252 503 358 801 L389 789 ZM645 273 Q760 106 843 -77 L811 -92 Q788 -38 755 26 Q492 -18 177 -39 L170 -9 Q314 96 480 467 L514 456 Q370 137 229 -4 Q511 16 739 56 Q679 170 613 263 L645 273 ZM630 807 Q722 515 950 332 L927 305 Q694 493 601 791 L630 807 Z" /><glyph glyph-name="uni516D" unicode="&#x516d;" d="M645 379 Q828 126 927 -66 L898 -86 Q796 117 616 361 L645 379 ZM381 360 Q269 69 92 -80 L64 -56 Q249 100 348 373 L381 360 ZM61 531 L939 531 L939 498 L61 498 L61 531 ZM389 803 Q515 713 599 620 L574 595 Q498 681 365 782 L389 803 Z" /><glyph glyph-name="uni518D" unicode="&#x518d;" d="M89 756 L912 756 L912 722 L517 722 L517 584 L813 584 L813 204 L941 204 L941 170 L813 170 L813 -9 Q813 -92 739 -92 L645 -92 L636 -58 L727 -60 Q779 -60 779 -2 L779 170 L221 170 L221 -95 L187 -95 L187 170 L59 170 L59 204 L187 204 L187 584 L483 584 L483 722 L89 722 L89 756 ZM221 204 L483 204 L483 366 L221 366 L221 204 ZM517 204 L779 204 L779 366 L517 366 L517 204 ZM221 397 L483 397 L483 551 L221 551 L221 397 ZM517 551 L517 397 L779 397 L779 551 L517 551 Z" /><glyph glyph-name="uni5199" unicode="&#x5199;" d="M330 511 Q313 445 283 344 L827 344 Q824 -10 776 -55 Q747 -87 634 -90 L545 -90 L535 -57 L636 -58 Q731 -55 754 -26 Q787 12 793 311 L239 311 Q301 520 330 666 L364 662 Q355 616 338 545 L766 545 L766 511 L330 511 ZM78 153 L674 153 L674 120 L78 120 L78 153 ZM882 760 L882 563 L848 563 L848 726 L152 726 L152 564 L118 564 L118 760 L882 760 Z" /><glyph glyph-name="uni51FA" unicode="&#x51fa;" d="M793 451 L793 737 L827 737 L827 417 L518 417 L518 14 L839 14 L839 301 L872 301 L872 -89 L839 -89 L839 -19 L161 -19 L161 -89 L128 -89 L128 301 L161 301 L161 14 L482 14 L482 417 L173 417 L173 737 L207 737 L207 451 L482 451 L482 814 L518 814 L518 451 L793 451 Z" /><glyph glyph-name="uni5206" unicode="&#x5206;" d="M418 774 Q344 641 273 560 Q191 466 69 387 L50 417 Q165 486 247 583 Q327 672 388 791 L418 774 ZM191 369 L191 402 L776 402 Q772 228 759 111 Q744 3 714 -42 Q680 -85 612 -88 L426 -88 L417 -55 L596 -56 Q680 -56 707 22 Q733 100 742 369 L439 369 Q403 193 337 92 Q265 -10 118 -94 L96 -67 Q235 11 305 104 Q373 204 405 369 L191 369 ZM629 802 Q722 564 949 430 L926 403 Q693 549 600 786 L629 802 Z" /><glyph glyph-name="uni5229" unicode="&#x5229;" d="M63 529 L281 529 L281 708 Q190 689 73 679 L62 711 Q300 728 481 801 L498 772 Q413 738 316 715 L316 529 L510 529 L510 496 L316 496 L316 429 Q419 332 513 223 L493 193 Q393 317 316 393 L316 -96 L281 -96 L281 430 Q206 246 60 105 L45 142 Q213 298 279 496 L63 496 L63 529 ZM617 718 L651 718 L651 91 L617 91 L617 718 ZM667 -86 L660 -53 Q758 -55 801 -55 Q857 -55 857 3 L857 809 L892 809 L892 -6 Q892 -86 812 -86 L667 -86 Z" /><glyph glyph-name="uni5230" unicode="&#x5230;" d="M561 2 Q333 -46 66 -79 L59 -46 Q216 -27 301 -14 L301 217 L91 217 L91 251 L301 251 L301 385 L335 385 L335 251 L534 251 L534 217 L335 217 L335 -8 Q465 14 561 35 L561 2 ZM68 756 L557 756 L557 722 L290 722 Q202 537 121 453 Q309 470 483 499 Q444 562 390 638 L416 655 Q519 514 573 408 L546 388 Q530 421 499 473 Q305 440 72 419 L64 450 L78 454 Q164 531 255 722 L68 722 L68 756 ZM682 -86 L674 -53 Q772 -55 814 -55 Q867 -55 867 -2 L867 809 L902 809 L902 -11 Q902 -86 826 -86 L682 -86 ZM657 719 L691 719 L691 91 L657 91 L657 719 Z" /><glyph glyph-name="uni5238" unicode="&#x5238;" d="M246 232 L246 265 L755 265 Q750 130 739 54 Q727 -23 698 -57 Q670 -87 606 -90 L474 -90 L466 -57 Q552 -59 589 -59 Q665 -59 689 -5 Q715 53 721 232 L443 232 Q413 111 357 39 Q290 -38 163 -95 L142 -68 Q264 -14 325 52 Q384 119 411 232 L246 232 ZM252 811 Q296 747 330 674 L301 661 Q264 740 221 801 L252 811 ZM787 808 Q752 722 700 660 L674 676 Q724 737 757 819 L787 808 ZM129 639 L453 639 Q485 730 499 823 L533 819 Q517 718 489 639 L871 639 L871 608 L478 608 Q445 527 405 465 L925 465 L925 433 L673 433 Q751 308 953 208 L931 180 Q718 292 639 433 L383 433 Q265 272 67 179 L48 208 Q233 290 343 433 L75 433 L75 465 L366 465 Q409 528 442 608 L129 608 L129 639 Z" /><glyph glyph-name="uni52A0" unicode="&#x52a0;" d="M891 665 L891 -80 L857 -80 L857 -7 L637 -7 L637 -80 L603 -80 L603 665 L891 665 ZM637 27 L857 27 L857 631 L637 631 L637 27 ZM235 809 L269 809 L269 626 L483 626 Q483 166 468 55 Q453 -84 319 -84 L246 -82 L237 -51 L317 -52 Q420 -52 435 60 Q446 150 449 592 L269 592 L269 587 Q265 119 71 -97 L44 -73 Q232 133 235 587 L235 592 L60 592 L60 626 L235 626 L235 809 Z" /><glyph glyph-name="uni52A1" unicode="&#x52a1;" d="M400 810 Q379 762 352 720 L802 720 L802 692 Q696 569 543 489 Q722 401 952 374 L936 341 Q695 371 506 470 Q317 380 64 341 L49 373 Q289 407 471 489 Q366 548 277 631 Q211 568 131 521 L110 548 Q299 656 365 814 L400 810 ZM508 506 Q652 579 755 688 L329 688 L301 655 Q395 567 508 506 ZM495 379 Q495 312 482 247 L845 247 Q842 7 798 -38 Q753 -86 644 -86 Q622 -86 540 -84 L531 -52 Q594 -53 636 -55 Q748 -53 776 -10 Q804 37 810 216 L474 216 Q461 169 439 127 Q357 -9 86 -95 L63 -67 Q312 8 398 127 Q425 172 439 216 L116 216 L116 247 L447 247 Q462 309 462 379 L495 379 Z" /><glyph glyph-name="uni5305" unicode="&#x5305;" d="M619 497 L619 223 L250 223 L250 1 Q250 -49 303 -49 L807 -49 Q848 -49 866 -12 Q880 22 886 123 L918 113 Q912 18 897 -24 Q873 -80 813 -82 L295 -82 Q216 -82 216 -6 L216 497 L619 497 ZM250 256 L586 256 L586 464 L250 464 L250 256 ZM343 814 Q318 753 287 692 L863 692 Q863 336 848 250 Q838 151 742 151 L681 153 L672 184 Q724 182 741 182 Q805 182 814 255 Q826 328 829 659 L269 659 Q193 532 93 436 L70 464 Q224 609 309 823 L343 814 Z" /><glyph glyph-name="uni533A" unicode="&#x533a;" d="M308 602 Q453 492 582 377 Q681 496 750 657 L780 640 Q708 474 607 354 Q734 240 843 117 L818 92 Q723 202 585 328 Q446 174 263 95 L244 126 Q426 201 560 351 Q431 466 283 579 L308 602 ZM136 767 L915 767 L915 734 L169 734 L169 -18 L942 -18 L942 -51 L136 -51 L136 767 Z" /><glyph glyph-name="uni533B" unicode="&#x533b;" d="M380 537 Q332 463 274 415 L249 438 Q354 527 412 680 L444 671 Q423 614 399 569 L829 569 L829 537 L595 537 L595 462 Q595 404 586 353 L888 353 L888 320 L578 320 Q557 242 516 187 Q439 92 265 38 L245 67 Q414 117 493 213 Q524 257 543 320 L247 320 L247 353 L551 353 Q559 400 561 462 L561 537 L380 537 ZM599 253 Q757 178 891 69 L872 40 Q731 157 581 227 L599 253 ZM123 773 L898 773 L898 741 L157 741 L157 -26 L930 -26 L930 -60 L123 -60 L123 773 Z" /><glyph glyph-name="uni5361" unicode="&#x5361;" d="M434 809 L468 809 L468 668 L807 668 L807 634 L468 634 L468 448 L939 448 L939 415 L468 415 L468 297 Q648 210 837 93 L818 64 Q611 194 468 264 L468 -94 L434 -94 L434 415 L60 415 L60 448 L434 448 L434 809 Z" /><glyph glyph-name="uni5373" unicode="&#x5373;" d="M149 533 L149 358 L432 358 L432 533 L149 533 ZM432 564 L432 731 L149 731 L149 564 L432 564 ZM95 -30 Q115 -22 115 -7 L115 763 L465 763 L465 325 L149 325 L149 -15 Q306 28 435 82 Q401 142 352 217 L379 234 Q478 82 528 -30 L501 -49 Q481 -4 451 53 Q303 -13 106 -61 L95 -30 ZM735 45 L726 79 L831 78 Q871 78 871 120 L871 731 L641 731 L641 -92 L606 -92 L606 763 L904 763 L904 113 Q904 45 843 45 L735 45 Z" /><glyph glyph-name="uni5385" unicode="&#x5385;" d="M923 756 L923 722 L206 722 L206 398 Q200 93 75 -92 L50 -69 Q166 98 172 398 L172 756 L923 756 ZM292 528 L910 528 L910 495 L644 495 L644 -2 Q644 -85 563 -85 L461 -85 L454 -52 Q505 -55 552 -55 Q610 -55 610 6 L610 495 L292 495 L292 528 Z" /><glyph glyph-name="uni53BB" unicode="&#x53bb;" d="M659 271 Q810 75 894 -81 L865 -101 Q834 -42 810 -3 Q456 -43 141 -66 L135 -36 Q273 41 416 343 L60 343 L60 377 L483 377 L483 604 L123 604 L123 638 L483 638 L483 811 L517 811 L517 638 L875 638 L875 604 L517 604 L517 377 L939 377 L939 343 L452 343 Q329 74 200 -31 Q649 5 792 26 Q721 139 632 254 L659 271 Z" /><glyph glyph-name="uni53CA" unicode="&#x53ca;" d="M317 721 L130 721 L130 756 L699 756 L699 733 Q673 597 643 485 L848 485 L848 463 Q806 253 645 107 Q766 10 938 -68 L916 -97 Q742 -18 619 85 Q487 -25 281 -99 L261 -67 Q465 4 592 108 Q412 268 345 484 Q309 100 77 -91 L50 -68 Q313 144 317 610 L317 721 ZM617 130 Q770 265 812 452 L599 452 Q628 545 661 721 L351 721 L351 597 L350 584 Q399 319 617 130 Z" /><glyph glyph-name="uni53CB" unicode="&#x53cb;" d="M79 661 L369 661 L387 811 L421 811 Q412 732 403 661 L935 661 L935 627 L398 627 Q383 539 363 443 L829 443 L829 413 Q764 237 619 111 Q755 -2 952 -59 L934 -90 Q728 -27 594 90 Q453 -23 256 -91 L239 -60 Q438 9 569 112 Q439 234 379 411 L356 411 Q335 329 311 264 Q232 69 79 -83 L58 -56 Q205 93 277 271 Q331 413 364 627 L79 627 L79 661 ZM411 411 Q471 245 594 133 Q733 253 793 411 L411 411 Z" /><glyph glyph-name="uni53CC" unicode="&#x53cc;" d="M112 592 Q223 457 306 336 Q371 507 383 706 L76 706 L76 739 L416 739 L416 712 Q404 481 330 301 Q405 190 465 82 L439 57 Q386 155 314 264 Q228 78 70 -60 L47 -33 Q206 104 291 298 Q204 426 88 568 L112 592 ZM499 739 L892 739 L892 708 Q856 451 720 230 Q810 77 951 -64 L927 -91 Q787 49 699 198 Q594 41 446 -89 L423 -62 Q577 73 680 230 Q550 460 537 706 L499 706 L499 739 ZM570 706 Q583 477 701 263 Q823 466 858 706 L570 706 Z" /><glyph glyph-name="uni2F1D" unicode="&#x2f1d;&#x53e3;" d="M847 681 L847 -79 L812 -79 L812 -4 L189 -4 L189 -79 L154 -79 L154 681 L847 681 ZM189 29 L812 29 L812 648 L189 648 L189 29 Z" /><glyph glyph-name="uni53EF" unicode="&#x53ef;" d="M60 743 L942 743 L942 709 L801 709 L801 -2 Q801 -88 715 -88 L551 -88 L544 -55 Q656 -57 703 -57 Q766 -57 766 7 L766 709 L60 709 L60 743 ZM546 519 L546 181 L221 181 L221 84 L187 84 L187 519 L546 519 ZM221 213 L513 213 L513 487 L221 487 L221 213 Z" /><glyph glyph-name="uni53F0" unicode="&#x53f0;" d="M821 307 L821 -96 L787 -96 L787 -32 L213 -32 L213 -96 L179 -96 L179 307 L821 307 ZM213 2 L787 2 L787 274 L213 274 L213 2 ZM91 459 Q252 536 437 812 L470 800 Q312 568 158 462 Q518 476 792 505 Q718 605 645 684 L676 700 Q814 547 931 367 L899 351 Q847 431 816 473 Q506 444 98 427 L91 459 Z" /><glyph glyph-name="uni53F7" unicode="&#x53f7;" d="M227 767 L773 767 L773 525 L227 525 L227 767 ZM739 557 L739 735 L261 735 L261 557 L739 557 ZM301 374 L59 374 L59 407 L940 407 L940 374 L336 374 L294 223 L791 223 Q782 2 749 -43 Q716 -85 623 -85 Q548 -85 489 -82 L476 -50 Q556 -53 615 -53 Q703 -53 725 -13 Q744 25 756 191 L254 191 L301 374 Z" /><glyph glyph-name="uni53F8" unicode="&#x53f8;" d="M162 376 L575 376 L575 96 L162 96 L162 376 ZM542 128 L542 343 L196 343 L196 128 L542 128 ZM624 -89 L615 -56 L753 -57 Q814 -57 814 13 L814 723 L118 723 L118 757 L848 757 L848 4 Q848 -89 760 -89 L624 -89 ZM97 562 L684 562 L684 529 L97 529 L97 562 Z" /><glyph glyph-name="uni5403" unicode="&#x5403;" d="M336 718 L336 6 L303 6 L303 79 L132 79 L132 -17 L98 -17 L98 718 L336 718 ZM132 112 L303 112 L303 684 L132 684 L132 112 ZM498 634 Q455 559 395 493 L373 518 Q484 641 544 817 L576 809 Q551 735 517 668 L925 668 L925 634 L498 634 ZM465 451 L834 451 L834 420 Q702 292 611 183 Q546 108 514 55 Q488 15 488 -7 Q488 -48 552 -48 L793 -48 Q849 -48 876 -21 Q902 8 914 159 L946 148 Q934 -13 899 -47 Q865 -80 793 -80 L546 -80 Q451 -80 451 -12 Q451 17 478 56 Q505 105 591 207 Q667 300 787 418 L465 418 L465 451 Z" /><glyph glyph-name="uni5404" unicode="&#x5404;" d="M769 264 L769 -97 L734 -97 L734 -40 L270 -40 L270 -97 L235 -97 L235 264 L769 264 ZM270 -6 L734 -6 L734 231 L270 231 L270 -6 ZM420 812 Q395 764 361 716 L761 716 L761 688 Q666 552 529 460 Q700 356 949 315 L934 285 Q674 330 500 441 Q316 329 66 281 L51 311 Q294 354 471 460 Q364 535 292 629 Q224 555 134 490 L111 516 Q292 643 387 821 L420 812 ZM312 653 Q388 551 499 478 Q629 566 718 683 L337 683 L312 653 Z" /><glyph glyph-name="uni5408" unicode="&#x5408;" d="M512 811 Q708 578 961 445 L943 414 Q683 554 500 780 Q332 569 53 412 L36 443 Q308 592 488 811 L512 811 ZM800 289 L800 -94 L766 -94 L766 -23 L234 -23 L234 -94 L200 -94 L200 289 L800 289 ZM234 11 L766 11 L766 255 L234 255 L234 11 ZM245 482 L755 482 L755 449 L245 449 L245 482 Z" /><glyph glyph-name="uni540D" unicode="&#x540d;" d="M335 -24 L335 -91 L301 -91 L301 277 Q201 242 74 210 L57 242 Q326 306 508 406 Q444 465 309 543 L338 562 Q472 482 538 423 Q714 531 795 674 L384 674 Q280 576 120 502 L99 531 Q358 645 451 813 L487 809 Q459 756 416 707 L835 707 L835 675 Q709 446 381 308 L857 308 L857 -91 L822 -91 L822 -24 L335 -24 ZM822 10 L822 276 L335 276 L335 10 L822 10 Z" /><glyph glyph-name="uni5468" unicode="&#x5468;" d="M495 685 L528 685 L528 582 L726 582 L726 550 L528 550 L528 423 L763 423 L763 390 L263 390 L263 423 L495 423 L495 550 L295 550 L295 582 L495 582 L495 685 ZM865 763 L865 -18 Q865 -84 794 -84 L669 -84 L660 -51 L783 -52 Q832 -52 832 -6 L832 730 L194 730 L194 320 Q191 67 101 -91 L75 -68 Q157 84 160 318 L160 763 L865 763 ZM327 296 L695 296 L695 68 L327 68 L327 296 ZM662 100 L662 265 L361 265 L361 100 L662 100 Z" /><glyph glyph-name="uni5480" unicode="&#x5480;" d="M852 759 L852 -20 L950 -20 L950 -53 L350 -53 L350 -20 L482 -20 L482 759 L852 759 ZM516 -20 L818 -20 L818 201 L516 201 L516 -20 ZM516 234 L818 234 L818 465 L516 465 L516 234 ZM516 498 L818 498 L818 725 L516 725 L516 498 ZM346 718 L346 84 L312 84 L312 158 L128 158 L128 51 L94 51 L94 718 L346 718 ZM128 191 L312 191 L312 684 L128 684 L128 191 Z" /><glyph glyph-name="uni54C1" unicode="&#x54c1;" d="M236 758 L761 758 L761 465 L236 465 L236 758 ZM726 499 L726 724 L271 724 L271 499 L726 499 ZM429 327 L429 -80 L395 -80 L395 -24 L141 -24 L141 -80 L107 -80 L107 327 L429 327 ZM141 9 L395 9 L395 294 L141 294 L141 9 ZM892 327 L892 -80 L858 -80 L858 -24 L595 -24 L595 -80 L561 -80 L561 327 L892 327 ZM595 9 L858 9 L858 294 L595 294 L595 9 Z" /><glyph glyph-name="uni54E6" unicode="&#x54e6;" d="M303 717 L303 22 L269 22 L269 89 L129 89 L129 1 L96 1 L96 717 L303 717 ZM129 123 L269 123 L269 683 L129 683 L129 123 ZM380 -88 L373 -55 Q412 -58 447 -58 Q502 -58 502 -2 L502 244 Q433 224 363 208 L354 241 Q421 254 502 278 L502 490 L361 490 L361 523 L502 523 L502 682 Q444 654 377 637 L363 668 Q524 707 605 797 L630 775 Q592 733 536 700 L536 523 L699 523 Q694 632 694 809 L727 809 Q727 628 732 523 L919 523 L919 490 L733 490 Q740 281 762 157 Q829 255 878 404 L906 389 Q852 224 771 113 Q811 -48 864 -51 Q899 -45 929 114 L954 93 Q918 -86 864 -86 Q818 -86 780 -10 Q761 28 747 82 Q686 10 607 -37 L588 -8 Q672 40 737 123 Q725 174 719 233 Q706 335 700 490 L536 490 L536 288 Q608 312 642 325 L642 291 Q598 275 536 254 L536 -10 Q536 -88 459 -88 L380 -88 ZM798 780 Q865 712 928 626 L902 606 Q839 698 773 762 L798 780 Z" /><glyph glyph-name="uni5531" unicode="&#x5531;" d="M336 717 L336 18 L303 18 L303 85 L129 85 L129 -3 L95 -3 L95 717 L336 717 ZM129 119 L303 119 L303 683 L129 683 L129 119 ZM477 763 L870 763 L870 430 L477 430 L477 763 ZM838 462 L838 582 L510 582 L510 462 L838 462 ZM510 612 L838 612 L838 732 L510 732 L510 612 ZM907 321 L907 -98 L875 -98 L875 -39 L473 -39 L473 -98 L440 -98 L440 321 L907 321 ZM473 -7 L875 -7 L875 126 L473 126 L473 -7 ZM473 158 L875 158 L875 290 L473 290 L473 158 Z" /><glyph glyph-name="uni5546" unicode="&#x5546;" d="M330 254 L669 254 L669 36 L330 36 L330 254 ZM636 67 L636 221 L363 221 L363 67 L636 67 ZM581 455 Q709 363 795 269 L770 244 Q691 333 558 433 L581 455 ZM478 821 Q502 775 525 715 L938 715 L938 681 L714 681 Q680 593 640 530 L873 530 L873 -4 Q873 -91 802 -91 L700 -91 L691 -58 L790 -59 Q840 -59 840 4 L840 498 L158 498 L158 -88 L125 -88 L125 530 L344 530 Q317 613 277 681 L62 681 L62 715 L490 715 Q465 772 441 815 L478 821 ZM604 530 Q646 604 675 681 L316 681 Q350 619 379 530 L604 530 ZM437 431 Q346 324 217 246 L195 274 Q322 349 412 453 L437 431 Z" /><glyph glyph-name="uni559C" unicode="&#x559c;" d="M138 614 L483 614 L483 707 L102 707 L102 737 L483 737 L483 814 L517 814 L517 737 L899 737 L899 707 L517 707 L517 614 L862 614 L862 584 L138 584 L138 614 ZM294 349 L198 349 L198 510 L802 510 L802 349 L711 349 L657 252 L942 252 L942 220 L58 220 L58 252 L336 252 L294 349 ZM675 349 L329 349 L371 252 L621 252 L675 349 ZM769 378 L769 482 L232 482 L232 378 L769 378 ZM817 142 L817 -93 L784 -93 L784 -47 L217 -47 L217 -93 L184 -93 L184 142 L817 142 ZM217 -17 L784 -17 L784 112 L217 112 L217 -17 Z" /><glyph glyph-name="uni559D" unicode="&#x559d;&#xfa36;" d="M326 716 L326 21 L294 21 L294 81 L130 81 L130 0 L97 0 L97 716 L326 716 ZM130 113 L294 113 L294 684 L130 684 L130 113 ZM448 254 L480 254 L480 50 L752 50 L752 18 L448 18 L448 254 ZM445 773 L860 773 L860 476 L562 476 Q541 427 516 390 L916 390 Q913 63 901 3 Q890 -54 858 -75 Q827 -95 739 -95 L697 -95 L688 -65 L749 -66 Q819 -66 844 -44 Q866 -22 872 30 Q879 93 883 359 L492 359 Q439 296 363 247 L347 274 Q476 352 532 476 L445 476 L445 773 ZM828 506 L828 609 L478 609 L478 506 L828 506 ZM478 638 L828 638 L828 743 L478 743 L478 638 ZM653 215 Q611 150 551 109 L531 133 Q630 198 667 314 L696 309 Q685 274 667 239 Q745 199 812 143 L795 117 Q722 180 653 215 Z" /><glyph glyph-name="uni5668" unicode="&#x5668;&#xfa38;" d="M150 766 L429 766 L429 550 L150 550 L150 766 ZM396 581 L396 735 L183 735 L183 581 L396 581 ZM570 766 L851 766 L851 550 L570 550 L570 766 ZM818 581 L818 735 L603 735 L603 581 L818 581 ZM63 420 L404 420 Q440 469 460 517 L493 513 Q470 460 443 420 L759 420 Q734 468 703 506 L734 516 Q767 473 795 420 L937 420 L937 388 L633 388 Q735 267 960 201 L946 172 Q697 253 598 388 L419 388 Q301 246 57 171 L41 200 Q265 269 377 388 L63 388 L63 420 ZM441 200 L441 -97 L408 -97 L408 -46 L197 -46 L197 -97 L165 -97 L165 200 L441 200 ZM197 -15 L408 -15 L408 168 L197 168 L197 -15 ZM852 200 L852 -97 L819 -97 L819 -46 L593 -46 L593 -97 L560 -97 L560 200 L852 200 ZM593 -15 L819 -15 L819 168 L593 168 L593 -15 Z" /><glyph glyph-name="uni56FD" unicode="&#x56fd;" d="M252 596 L747 596 L747 564 L517 564 L517 385 L716 385 L716 353 L517 353 L517 161 L776 161 L776 128 L225 128 L225 161 L483 161 L483 353 L284 353 L284 385 L483 385 L483 564 L252 564 L252 596 ZM896 753 L896 -93 L861 -93 L861 -41 L138 -41 L138 -93 L103 -93 L103 753 L896 753 ZM138 -9 L861 -9 L861 719 L138 719 L138 -9 ZM635 316 Q675 261 708 196 L681 183 Q647 252 607 306 L635 316 Z" /><glyph glyph-name="uni5708" unicode="&#x5708;" d="M236 569 L344 569 Q318 626 285 667 L314 677 Q348 632 376 569 L463 569 Q481 629 490 697 L523 694 Q512 625 496 569 L606 569 Q646 622 663 681 L692 674 Q677 620 641 569 L764 569 L764 540 L487 540 Q468 489 447 450 L796 450 L796 420 L622 420 Q680 318 822 237 L802 212 Q653 305 592 420 L430 420 Q402 375 367 336 L638 336 L638 239 Q638 185 567 183 Q524 183 482 186 L475 215 Q531 211 560 211 Q606 211 606 242 L606 308 L377 308 L377 115 Q377 88 411 88 L596 88 Q659 88 675 106 Q692 131 698 189 L729 179 Q720 97 691 75 Q666 58 599 58 L405 58 Q346 58 346 110 L346 315 Q278 248 197 208 L180 234 Q317 300 394 420 L204 420 L204 450 L412 450 Q433 487 453 540 L236 540 L236 569 ZM139 -42 L139 -96 L105 -96 L105 767 L895 767 L895 -96 L861 -96 L861 -42 L139 -42 ZM861 -11 L861 737 L139 737 L139 -11 L861 -11 Z" /><glyph glyph-name="uni5728" unicode="&#x5728;" d="M363 333 L610 333 L610 535 L645 535 L645 333 L894 333 L894 299 L645 299 L645 -26 L942 -26 L942 -60 L317 -60 L317 -26 L610 -26 L610 299 L363 299 L363 333 ZM218 353 Q148 274 62 203 L41 230 Q250 403 361 628 L75 628 L75 662 L377 662 Q407 729 433 815 L468 812 Q444 734 414 662 L939 662 L939 628 L398 628 Q337 499 252 394 L252 -98 L218 -98 L218 353 Z" /><glyph glyph-name="uni5730" unicode="&#x5730;" d="M902 623 Q902 325 891 259 Q879 196 802 196 L770 196 L760 230 L809 229 Q850 229 859 269 Q868 308 868 577 L692 523 L692 120 L658 120 L658 512 L493 461 L493 6 Q493 -44 542 -44 L818 -44 Q861 -44 877 -23 Q898 8 907 150 L939 140 Q930 -11 901 -49 Q877 -78 825 -78 L532 -78 Q459 -78 459 0 L459 451 L371 424 L371 458 L459 485 L459 711 L493 711 L493 496 L658 547 L658 812 L692 812 L692 558 L902 623 ZM375 141 Q228 75 54 33 L46 67 Q115 82 190 105 L190 491 L58 491 L58 525 L190 525 L190 809 L224 809 L224 525 L350 525 L350 491 L224 491 L224 116 Q302 142 375 176 L375 141 Z" /><glyph glyph-name="uni573A" unicode="&#x573a;" d="M425 419 L425 452 Q621 568 795 711 L434 711 L434 744 L844 744 L844 712 Q677 567 485 451 L904 451 Q898 120 877 23 Q853 -78 752 -81 L657 -80 L647 -45 Q698 -48 746 -48 Q816 -45 840 18 Q860 78 869 419 L766 419 Q729 230 656 119 Q578 8 422 -82 L401 -56 Q550 28 624 130 Q699 238 732 419 L623 419 Q566 230 427 122 L405 148 Q537 249 589 419 L425 419 ZM56 522 L191 522 L191 793 L225 793 L225 522 L365 522 L365 489 L225 489 L225 94 Q289 112 372 143 L372 109 Q229 54 52 17 L43 51 Q117 66 191 84 L191 489 L56 489 L56 522 Z" /><glyph glyph-name="uni578B" unicode="&#x578b;" d="M99 756 L557 756 L557 724 L444 724 L444 542 L578 542 L578 508 L444 508 L444 276 L410 276 L410 508 L246 508 Q231 344 125 263 L100 286 Q201 360 213 508 L73 508 L73 542 L215 542 L215 724 L99 724 L99 756 ZM248 724 L248 542 L410 542 L410 724 L248 724 ZM662 744 L695 744 L695 399 L662 399 L662 744 ZM122 156 L487 156 L487 265 L521 265 L521 156 L879 156 L879 124 L521 124 L521 -31 L935 -31 L935 -64 L65 -64 L65 -31 L487 -31 L487 124 L122 124 L122 156 ZM679 272 L672 305 Q740 302 801 302 Q843 302 843 339 L843 800 L876 800 L876 331 Q876 272 813 272 L679 272 Z" /><glyph glyph-name="uni57CE" unicode="&#x57ce;" d="M49 542 L152 542 L152 808 L186 808 L186 542 L288 542 L288 508 L186 508 L186 157 Q243 185 288 212 L288 178 Q178 112 46 70 L38 102 Q102 122 152 142 L152 508 L49 508 L49 542 ZM397 410 L397 392 Q391 96 261 -84 L235 -62 Q357 100 363 392 L363 648 L654 648 Q651 726 651 811 L685 811 Q685 698 687 648 L924 648 L924 615 L688 615 Q694 417 718 294 Q727 244 739 200 Q809 324 849 505 L879 493 Q833 297 751 159 Q769 98 795 47 Q837 -30 865 -30 Q898 -29 919 137 L948 121 Q921 -74 874 -74 Q828 -74 775 17 Q745 70 729 124 Q637 -10 508 -79 L487 -53 Q626 19 717 163 Q699 220 687 286 Q661 421 655 615 L397 615 L397 441 L577 441 Q577 183 559 126 Q539 72 492 69 L422 69 L414 99 L483 99 Q523 104 533 157 Q542 211 545 410 L397 410 ZM804 822 Q849 757 879 688 L851 676 Q817 754 776 811 L804 822 Z" /><glyph glyph-name="uni2F20" unicode="&#x2f20;&#x58eb;" d="M60 476 L484 476 L484 813 L518 813 L518 476 L940 476 L940 443 L518 443 L518 0 L902 0 L902 -34 L100 -34 L100 0 L484 0 L484 443 L60 443 L60 476 Z" /><glyph glyph-name="uni5907" unicode="&#x5907;" d="M800 324 L800 -95 L766 -95 L766 -41 L236 -41 L236 -95 L202 -95 L202 324 L800 324 ZM236 -9 L483 -9 L483 126 L236 126 L236 -9 ZM517 -9 L766 -9 L766 126 L517 126 L517 -9 ZM236 156 L483 156 L483 292 L236 292 L236 156 ZM517 292 L517 156 L766 156 L766 292 L517 292 ZM421 816 Q386 763 360 730 L788 730 L788 703 Q685 576 536 491 Q707 410 950 377 L934 345 Q681 382 503 473 Q320 379 63 336 L47 365 Q292 403 470 491 Q354 557 276 642 Q206 578 121 526 L99 553 Q285 664 386 824 L421 816 ZM296 661 Q378 571 502 508 Q648 588 747 699 L333 699 Q321 686 296 661 Z" /><glyph glyph-name="uni5916" unicode="&#x5916;" d="M656 810 L690 810 L690 499 Q821 401 954 276 L933 247 Q788 389 690 462 L690 -94 L656 -94 L656 810 ZM217 407 Q309 355 387 283 Q473 434 497 624 L265 624 Q193 449 70 337 L48 365 Q225 530 288 811 L322 805 Q305 730 278 657 L530 657 L530 628 Q479 172 88 -62 L65 -33 Q263 84 371 255 Q285 335 198 379 L217 407 Z" /><glyph glyph-name="uni2F24" unicode="&#x2f24;&#x5927;" d="M66 536 L467 536 Q481 630 483 739 L483 810 L517 810 L517 747 Q517 642 501 536 L934 536 L934 502 L523 502 Q627 133 949 -62 L929 -90 Q599 112 494 497 Q416 86 69 -94 L48 -66 Q386 102 461 502 L66 502 L66 536 Z" /><glyph glyph-name="uni5929" unicode="&#x5929;" d="M84 445 L459 445 Q482 567 488 713 L110 713 L110 747 L890 747 L890 713 L523 713 Q516 561 493 445 L919 445 L919 412 L531 412 Q633 98 946 -67 L926 -94 Q599 80 497 412 L486 412 Q459 287 412 205 Q311 29 72 -94 L51 -66 Q279 50 379 215 Q425 296 452 412 L84 412 L84 445 Z" /><glyph glyph-name="uni592A" unicode="&#x592a;" d="M65 586 L464 586 Q474 673 476 767 L476 807 L510 807 L510 775 Q510 676 498 586 L936 586 L936 552 L519 552 Q624 148 957 -65 L935 -93 Q601 123 490 532 Q454 323 354 170 Q435 96 539 -36 L515 -60 Q417 65 335 143 Q230 -2 65 -91 L43 -63 Q391 116 460 552 L65 552 L65 586 Z" /><glyph glyph-name="uni5976" unicode="&#x5976;" d="M533 712 L417 712 L417 746 L816 746 L816 729 Q793 585 756 439 L906 439 L906 423 Q900 153 888 69 Q876 -21 848 -52 Q820 -82 759 -82 L664 -82 L654 -47 Q707 -50 748 -50 Q803 -50 824 -26 Q846 0 855 72 Q865 140 874 408 L716 408 Q758 568 779 712 L567 712 L567 532 Q563 106 355 -89 L329 -68 Q530 120 533 532 L533 712 ZM244 811 Q221 668 209 607 L373 607 L373 584 Q357 343 274 169 Q330 123 371 82 L348 56 Q320 85 259 139 Q187 4 73 -89 L51 -62 Q164 29 233 160 Q166 216 91 271 Q136 411 169 574 L61 574 L61 607 L176 607 Q198 720 211 815 L244 811 ZM248 190 Q324 355 340 574 L203 574 Q168 403 127 281 Q174 248 248 190 Z" /><glyph glyph-name="uni597D" unicode="&#x597d;" d="M264 823 Q238 677 224 608 L408 608 L408 585 Q390 344 299 166 Q390 95 455 30 L432 4 Q366 70 283 135 Q204 -3 78 -97 L56 -68 Q180 23 257 156 Q211 193 97 275 Q146 417 183 575 L60 575 L60 608 L190 608 Q211 704 230 827 L264 823 ZM273 186 Q357 351 375 575 L217 575 Q180 408 135 286 Q218 228 273 186 ZM458 379 L701 379 L701 523 Q790 603 868 713 L489 713 L489 747 L907 747 L907 713 Q834 608 735 512 L735 379 L955 379 L955 345 L735 345 L735 -12 Q735 -85 667 -85 L530 -85 L521 -52 L653 -53 Q701 -53 701 -1 L701 345 L458 345 L458 379 Z" /><glyph glyph-name="uni5986" unicode="&#x5986;" d="M288 809 L321 809 L321 -92 L288 -92 L288 287 Q190 181 53 84 L45 119 Q175 205 288 330 L288 809 ZM93 700 Q163 581 216 443 L186 430 Q128 580 61 689 L93 700 ZM399 577 L572 577 Q603 687 627 816 L661 813 Q632 673 606 577 L946 577 L946 543 L838 543 Q822 275 733 147 Q723 135 719 129 Q857 18 941 -66 L919 -92 Q836 -8 698 104 Q596 -7 405 -87 L384 -61 Q576 19 672 125 Q571 205 468 280 Q518 397 562 543 L399 543 L399 577 ZM693 150 Q695 153 700 158 Q790 284 805 543 L597 543 Q554 393 505 290 Q631 198 693 150 Z" /><glyph glyph-name="uni5A74" unicode="&#x5a74;" d="M352 454 Q430 400 481 346 L458 323 Q410 376 330 433 L352 454 ZM748 434 Q841 380 902 325 L880 302 Q822 356 727 413 L748 434 ZM445 765 L445 468 L414 468 L414 734 L180 734 L180 450 L148 450 L148 765 L445 765 ZM283 669 L315 669 L315 568 Q314 463 270 400 Q225 340 125 306 L107 334 Q202 364 245 421 Q283 479 283 568 L283 669 ZM851 765 L851 450 L819 450 L819 734 L587 734 L587 450 L556 450 L556 765 L851 765 ZM687 671 L719 671 L719 567 Q718 465 675 403 Q630 345 534 312 L517 340 Q608 370 650 424 Q687 480 687 567 L687 671 ZM65 250 L336 250 L388 333 L421 322 Q402 291 374 250 L933 250 L933 216 L716 216 Q660 109 577 43 Q735 -4 889 -63 L868 -90 Q706 -27 547 21 Q545 21 545 20 Q393 -78 129 -84 L109 -53 Q351 -51 504 34 Q363 74 229 103 Q279 167 313 216 L65 216 L65 250 ZM351 216 Q307 153 280 119 Q408 93 537 55 Q624 116 678 216 L351 216 Z" /><glyph glyph-name="uni2F26" unicode="&#x2f26;&#x5b50;" d="M68 365 L504 365 L504 529 Q647 610 777 724 L172 724 L172 758 L827 758 L827 724 Q704 613 537 510 L537 365 L932 365 L932 331 L537 331 L537 -4 Q537 -89 458 -89 L293 -89 L284 -56 L444 -57 Q504 -57 504 7 L504 331 L68 331 L68 365 Z" /><glyph glyph-name="uni5B89" unicode="&#x5b89;" d="M895 703 L895 507 L861 507 L861 669 L138 669 L138 508 L104 508 L104 703 L492 703 Q469 763 442 812 L479 819 Q504 772 528 703 L895 703 ZM65 423 L349 423 Q407 524 446 599 L480 588 Q412 461 391 423 L937 423 L937 389 L731 389 Q668 216 573 113 Q729 44 904 -57 L883 -85 Q715 14 548 87 L545 84 Q383 -66 97 -75 L77 -43 Q339 -40 506 94 L515 102 Q372 166 221 214 Q282 307 330 389 L65 389 L65 423 ZM371 389 Q317 298 272 230 Q408 187 542 127 Q637 225 696 389 L371 389 Z" /><glyph glyph-name="uni5B98" unicode="&#x5b98;" d="M896 707 L896 525 L862 525 L862 673 L138 673 L138 526 L104 526 L104 707 L491 707 Q465 765 426 820 L461 826 Q493 777 525 707 L896 707 ZM755 540 L755 319 L275 319 L275 187 L801 187 L801 -95 L767 -95 L767 -49 L275 -49 L275 -96 L241 -96 L241 540 L755 540 ZM275 -17 L767 -17 L767 156 L275 156 L275 -17 ZM275 350 L722 350 L722 508 L275 508 L275 350 Z" /><glyph glyph-name="uni5B9A" unicode="&#x5b9a;" d="M212 503 L790 503 L790 469 L522 469 L522 252 L837 252 L837 219 L522 219 L522 -24 Q625 -41 783 -43 Q860 -43 944 -40 L938 -75 L798 -75 Q515 -75 392 -21 Q285 30 224 148 Q164 3 74 -95 L52 -68 Q200 94 253 371 L286 365 Q267 269 238 185 Q313 35 426 -1 Q456 -11 488 -18 L488 469 L212 469 L212 503 ZM893 699 L893 506 L859 506 L859 665 L141 665 L141 502 L107 502 L107 699 L499 699 Q474 762 443 815 L479 821 Q509 765 533 699 L893 699 Z" /><glyph glyph-name="uni5B9D" unicode="&#x5b9d;" d="M486 465 L184 465 L184 499 L826 499 L826 465 L521 465 L521 257 L793 257 L793 223 L521 223 L521 -24 L915 -24 L915 -57 L92 -57 L92 -24 L486 -24 L486 223 L207 223 L207 257 L486 257 L486 465 ZM695 175 Q775 87 815 21 L789 3 Q744 74 669 159 L695 175 ZM884 696 L884 525 L849 525 L849 663 L144 663 L144 515 L109 515 L109 696 L495 696 Q471 754 442 800 L477 806 Q508 754 530 696 L884 696 Z" /><glyph glyph-name="uni5B9E" unicode="&#x5b9e;" d="M892 696 L892 518 L857 518 L857 663 L143 663 L143 513 L108 513 L108 696 L496 696 Q473 766 447 816 L483 823 Q509 762 530 696 L892 696 ZM201 441 Q320 394 414 329 L396 300 Q295 372 184 415 L201 441 ZM266 596 Q380 551 472 485 L453 457 Q355 528 248 571 L266 596 ZM597 590 L631 590 L631 499 Q630 349 581 237 L930 237 L930 204 L565 204 Q543 163 519 132 Q740 48 925 -69 L905 -99 Q708 31 498 108 Q376 -19 117 -92 L98 -63 Q369 11 488 145 Q510 172 527 204 L67 204 L67 237 L544 237 Q594 347 597 499 L597 590 Z" /><glyph glyph-name="uni5BB6" unicode="&#x5bb6;" d="M666 309 Q625 294 573 281 Q601 204 604 114 Q604 -1 574 -46 Q544 -94 424 -94 L387 -94 L376 -65 L419 -65 Q516 -62 541 -33 Q570 4 570 114 Q568 160 561 199 Q391 54 97 -34 L80 -4 Q391 88 553 234 Q538 289 511 335 Q369 217 109 141 L92 171 Q355 245 495 361 Q465 406 436 435 Q414 423 394 414 Q279 362 127 322 L108 350 Q258 385 370 435 Q454 473 519 516 L197 516 L197 549 L804 549 L804 516 L567 516 Q518 482 462 449 Q527 387 562 308 Q713 347 849 439 L873 416 Q788 358 694 320 Q766 109 934 -12 L911 -39 Q736 97 666 309 ZM495 819 Q516 771 534 711 L911 711 L911 556 L878 556 L878 678 L122 678 L122 556 L88 556 L88 711 L500 711 Q481 768 461 812 L495 819 Z" /><glyph glyph-name="uni5C16" unicode="&#x5c16;" d="M519 378 Q511 322 494 260 L934 260 L934 226 L526 226 Q655 14 952 -63 L933 -92 Q627 -9 492 226 L484 226 Q451 131 391 66 Q285 -41 63 -98 L49 -66 Q269 -12 366 90 Q420 147 449 226 L67 226 L67 260 L461 260 Q477 313 485 378 L519 378 ZM320 713 Q240 535 111 442 L85 465 Q217 561 289 726 L320 713 ZM694 741 Q833 582 908 462 L880 441 Q801 572 668 724 L694 741 ZM484 800 L518 800 L518 424 L484 424 L484 800 Z" /><glyph glyph-name="uni5C3C" unicode="&#x5c3c;" d="M815 731 L212 731 L212 531 L815 531 L815 731 ZM212 498 L212 447 Q211 132 79 -92 L54 -69 Q178 134 178 447 L178 765 L850 765 L850 498 L212 498 ZM413 -70 Q348 -70 348 5 L348 422 L381 422 L381 229 Q632 278 877 374 L897 346 Q626 242 381 195 L381 12 Q381 -37 423 -37 L784 -37 Q833 -37 851 -17 Q877 12 886 149 L918 139 Q909 -4 876 -42 Q850 -70 791 -70 L413 -70 Z" /><glyph glyph-name="uni5C42" unicode="&#x5c42;" d="M328 418 L863 418 L863 386 L328 386 L328 418 ZM259 254 L927 254 L927 222 L536 222 Q425 36 347 -27 Q586 -12 813 22 Q767 78 700 149 L727 165 Q857 26 925 -73 L897 -93 Q873 -56 836 -7 Q584 -41 302 -60 L294 -28 Q297 -25 301 -25 Q376 20 500 222 L259 222 L259 254 ZM830 727 L203 727 L203 578 L830 578 L830 727 ZM203 545 L203 446 Q201 135 77 -87 L53 -66 Q168 134 169 446 L169 761 L864 761 L864 545 L203 545 Z" /><glyph glyph-name="uni2F2D" unicode="&#x2f2d;&#x5c71;" d="M845 646 L880 646 L880 -78 L845 -78 L845 0 L154 0 L154 -78 L119 -78 L119 647 L154 647 L154 33 L483 33 L483 809 L517 809 L517 33 L845 33 L845 646 Z" /><glyph glyph-name="uni5DDE" unicode="&#x5dde;" d="M189 564 Q168 410 110 271 L78 283 Q136 419 158 572 L189 564 ZM568 775 L602 775 L602 -62 L568 -62 L568 775 ZM844 807 L877 807 L877 -96 L844 -96 L844 807 ZM387 548 Q450 435 502 296 L473 281 Q422 423 357 535 L387 548 ZM287 800 L320 800 L320 499 Q317 91 126 -95 L101 -73 Q284 104 287 499 L287 800 ZM665 556 Q731 439 778 306 L750 292 Q698 433 636 544 L665 556 Z" /><glyph glyph-name="uni5DF4" unicode="&#x5df4;" d="M479 715 L170 715 L170 393 L479 393 L479 715 ZM514 393 L825 393 L825 715 L514 715 L514 393 ZM859 749 L859 360 L170 360 L170 31 Q170 -27 227 -29 L806 -29 Q861 -29 885 18 Q904 61 911 193 L943 182 Q937 64 917 11 Q887 -62 812 -63 L220 -63 Q136 -63 136 24 L136 749 L859 749 Z" /><glyph glyph-name="uni5E03" unicode="&#x5e03;" d="M545 553 L578 553 L578 420 L868 420 L868 91 Q868 13 792 13 L693 13 L684 47 L780 45 Q835 45 835 97 L835 387 L578 387 L578 -95 L545 -95 L545 387 L287 387 L287 8 L254 8 L254 411 Q169 318 64 240 L43 267 Q256 426 370 633 L75 633 L75 668 L388 668 Q422 737 449 815 L484 811 Q461 739 427 668 L935 668 L935 633 L409 633 Q349 519 262 420 L545 420 L545 553 Z" /><glyph glyph-name="uni5E73" unicode="&#x5e73;" d="M102 756 L900 756 L900 722 L513 722 L513 306 L938 306 L938 273 L513 273 L513 -95 L479 -95 L479 273 L62 273 L62 306 L479 306 L479 722 L102 722 L102 756 ZM195 631 Q256 521 308 395 L276 380 Q221 518 164 615 L195 631 ZM838 624 Q789 500 709 381 L679 397 Q759 517 806 638 L838 624 Z" /><glyph glyph-name="uni2F34" unicode="&#x2f34;&#x5e7f;" d="M502 831 Q539 767 567 695 L940 695 L940 662 L184 662 L184 418 Q180 92 74 -105 L48 -79 Q145 98 150 418 L150 695 L532 695 Q502 767 466 824 L502 831 Z" /><glyph glyph-name="uni5E94" unicode="&#x5e94;" d="M228 -11 L651 -11 Q751 204 827 538 L860 529 Q792 221 688 -11 L924 -11 L924 -45 L228 -45 L228 -11 ZM312 490 Q374 322 421 119 L389 110 Q346 304 281 480 L312 490 ZM507 559 Q560 393 601 176 L569 168 Q533 364 476 548 L507 559 ZM502 821 Q535 774 566 707 L940 707 L940 673 L184 673 L184 428 Q180 102 74 -94 L48 -69 Q145 109 150 428 L150 707 L531 707 Q502 765 466 815 L502 821 Z" /><glyph glyph-name="uni5E97" unicode="&#x5e97;" d="M543 608 L576 608 L576 471 L926 471 L926 437 L576 437 L576 260 L842 260 L842 -94 L808 -94 L808 -35 L341 -35 L341 -94 L307 -94 L307 260 L543 260 L543 608 ZM341 -1 L808 -1 L808 227 L341 227 L341 -1 ZM512 817 Q542 767 567 701 L940 701 L940 667 L186 667 L186 430 Q180 105 75 -90 L50 -67 Q148 112 151 430 L151 701 L532 701 Q507 766 477 811 L512 817 Z" /><glyph glyph-name="uni5ECA" unicode="&#x5eca;" d="M922 726 L922 695 L178 695 L178 388 Q174 91 80 -88 L54 -65 Q140 97 144 388 L144 726 L521 726 Q496 777 470 815 L504 821 Q536 772 556 726 L922 726 ZM317 373 L317 259 L526 259 L526 373 L317 373 ZM526 404 L526 515 L317 515 L317 404 L526 404 ZM491 179 Q544 78 589 -53 L559 -66 Q545 -26 526 23 Q416 -24 273 -58 L264 -27 Q285 -24 285 -13 L285 547 L413 547 Q390 602 366 640 L400 646 Q426 599 447 547 L559 547 L559 227 L317 227 L317 -17 Q438 18 515 51 Q489 112 461 169 L491 179 ZM650 572 L897 572 L897 544 Q854 433 793 314 Q891 205 897 104 Q896 43 868 12 Q834 -22 749 -23 L738 11 Q752 9 757 9 Q820 15 842 34 Q863 55 863 104 Q863 197 758 309 Q825 439 862 539 L683 539 L683 -95 L650 -95 L650 572 Z" /><glyph glyph-name="uni5F3A" unicode="&#x5f3a;" d="M431 430 L650 430 L650 538 L468 538 L468 762 L866 762 L866 538 L684 538 L684 430 L902 430 L902 183 L684 183 L684 -11 Q775 1 862 16 Q844 62 810 131 L843 141 Q899 23 934 -83 L903 -95 Q892 -61 874 -14 Q671 -48 410 -73 L401 -40 Q541 -29 650 -15 L650 183 L431 183 L431 430 ZM870 215 L870 399 L684 399 L684 215 L870 215 ZM650 215 L650 399 L463 399 L463 215 L650 215 ZM139 505 L115 310 L337 310 Q337 68 322 -1 Q302 -86 181 -87 Q158 -87 110 -83 L101 -51 Q151 -55 175 -55 Q270 -55 288 8 Q304 78 304 279 L79 279 L108 538 L293 538 L293 728 L87 728 L87 761 L326 761 L326 505 L139 505 ZM833 568 L833 731 L500 731 L500 568 L833 568 Z" /><glyph glyph-name="uni2F3C" unicode="&#x2f3c;&#x5fc3;" d="M397 -62 Q313 -62 313 16 L313 603 L348 603 L348 23 Q348 -27 407 -27 L616 -27 Q662 -27 681 1 Q705 41 714 231 L746 220 Q737 28 706 -25 Q680 -62 622 -62 L397 -62 ZM204 478 Q159 237 78 61 L48 80 Q131 256 171 485 L204 478 ZM770 522 Q879 334 958 126 L927 112 Q839 338 735 510 L770 522 ZM402 799 Q552 659 629 559 L600 539 Q517 649 373 781 L402 799 Z" /><glyph glyph-name="uni6015" unicode="&#x6015;" d="M888 647 L888 -91 L854 -91 L854 -30 L498 -30 L498 -90 L465 -90 L465 647 L593 647 Q639 731 658 821 L693 816 Q670 724 626 647 L888 647 ZM498 3 L854 3 L854 297 L498 297 L498 3 ZM498 329 L854 329 L854 614 L498 614 L498 329 ZM130 621 Q124 478 77 344 L47 353 Q93 480 99 624 L130 621 ZM312 640 Q357 541 393 415 L364 407 Q334 519 284 631 L312 640 ZM205 810 L238 810 L238 -92 L205 -92 L205 810 Z" /><glyph glyph-name="uni606F" unicode="&#x606f;" d="M202 727 L419 727 Q445 770 457 814 L492 809 Q478 761 455 727 L806 727 L806 265 L202 265 L202 727 ZM772 297 L772 412 L236 412 L236 297 L772 297 ZM236 442 L772 442 L772 552 L236 552 L236 442 ZM236 583 L772 583 L772 696 L236 696 L236 583 ZM192 175 Q153 38 87 -61 L58 -42 Q125 53 158 182 L192 175 ZM353 -80 Q289 -80 289 -18 L289 190 L323 190 L323 -11 Q323 -48 363 -48 L608 -48 Q651 -48 668 -31 Q691 -5 698 108 L731 97 Q722 -25 693 -57 Q668 -80 614 -80 L353 -80 ZM463 221 Q557 136 604 76 L578 56 Q529 122 437 205 L463 221 ZM790 196 Q894 75 954 -25 L927 -44 Q867 57 764 179 L790 196 Z" /><glyph glyph-name="uni607C" unicode="&#x607c;" d="M554 564 Q622 459 687 348 Q740 461 766 588 L798 582 Q766 433 707 313 Q760 219 808 116 L781 97 Q742 183 689 279 Q628 166 543 84 L521 110 Q610 197 670 313 Q614 413 528 547 L554 564 ZM646 816 Q673 760 698 681 L949 681 L949 648 L390 648 L390 681 L664 681 Q641 750 611 810 L646 816 ZM463 -26 L463 -88 L431 -88 L431 510 L463 510 L463 6 L875 6 L875 510 L907 510 L907 -86 L875 -86 L875 -26 L463 -26 ZM134 621 Q128 467 80 331 L51 339 Q98 471 104 624 L134 621 ZM303 640 Q338 550 367 424 L339 417 Q315 527 277 631 L303 640 ZM196 810 L230 810 L230 -92 L196 -92 L196 810 Z" /><glyph glyph-name="uni60E0" unicode="&#x60e0;" d="M60 737 L483 737 L483 815 L517 815 L517 737 L940 737 L940 706 L517 706 L517 627 L839 627 L839 351 L517 351 L517 261 Q704 270 813 277 Q785 306 756 331 L780 347 Q878 260 928 198 L902 179 Q875 213 840 250 Q535 228 95 218 L90 250 Q249 252 483 260 L483 351 L161 351 L161 627 L483 627 L483 706 L60 706 L60 737 ZM806 381 L806 475 L517 475 L517 381 L806 381 ZM483 381 L483 475 L194 475 L194 381 L483 381 ZM194 504 L483 504 L483 598 L194 598 L194 504 ZM517 598 L517 504 L806 504 L806 598 L517 598 ZM194 153 Q156 29 88 -60 L59 -41 Q128 47 161 159 L194 153 ZM367 -80 Q297 -80 297 -16 L297 173 L331 173 L331 -9 Q331 -47 377 -47 L620 -47 Q661 -47 676 -32 Q696 -12 703 82 L735 72 Q726 -33 699 -60 Q677 -80 627 -80 L367 -80 ZM480 185 Q559 113 604 56 L577 38 Q537 92 453 169 L480 185 ZM785 176 Q891 58 942 -22 L915 -41 Q857 51 759 159 L785 176 Z" /><glyph glyph-name="uni6211" unicode="&#x6211;" d="M511 301 Q414 268 309 241 L309 1 Q309 -82 234 -82 L125 -82 L118 -49 Q172 -52 223 -52 Q275 -52 275 10 L275 233 Q156 206 56 190 L51 223 Q163 242 275 267 L275 492 L54 492 L54 525 L275 525 L275 706 Q177 686 90 675 L83 708 Q302 733 469 797 L481 764 Q397 734 309 714 L309 525 L591 525 Q582 654 582 810 L616 810 Q616 650 625 525 L946 525 L946 492 L628 492 Q639 367 659 285 Q669 240 687 186 Q777 286 838 415 L868 399 Q799 254 700 150 Q726 82 757 35 Q813 -44 849 -44 Q893 -43 923 146 L953 130 Q919 -80 855 -80 Q800 -80 733 11 Q699 62 674 124 Q559 13 408 -47 L389 -17 Q547 44 661 159 Q639 218 625 281 Q605 369 594 492 L309 492 L309 275 Q411 300 511 336 L511 301 ZM726 796 Q835 719 911 639 L887 615 Q818 689 702 774 L726 796 Z" /><glyph glyph-name="uni6263" unicode="&#x6263;" d="M880 708 L880 -74 L847 -74 L847 5 L504 5 L504 -74 L471 -74 L471 708 L880 708 ZM504 38 L847 38 L847 674 L504 674 L504 38 ZM393 363 Q323 327 259 300 L259 -3 Q259 -83 182 -83 L83 -83 L76 -50 Q126 -53 170 -53 Q225 -53 225 5 L225 286 Q148 256 59 229 L51 262 Q149 288 225 318 L225 582 L67 582 L67 615 L225 615 L225 809 L259 809 L259 615 L388 615 L388 582 L259 582 L259 332 Q336 365 393 396 L393 363 Z" /><glyph glyph-name="uni626B" unicode="&#x626b;" d="M411 722 L896 722 L896 -75 L861 -75 L861 0 L386 0 L386 34 L861 34 L861 352 L434 352 L434 386 L861 386 L861 689 L411 689 L411 722 ZM383 355 Q318 325 244 297 L244 -25 Q244 -84 180 -84 L94 -84 L87 -51 Q143 -53 168 -53 Q211 -53 211 -17 L211 286 Q145 263 57 239 L49 271 Q137 292 211 317 L211 582 L60 582 L60 615 L211 615 L211 811 L244 811 L244 615 L368 615 L368 582 L244 582 L244 329 Q314 355 383 389 L383 355 Z" /><glyph glyph-name="uni627E" unicode="&#x627e;" d="M901 601 L906 568 L581 507 Q592 398 611 313 Q624 255 645 190 Q760 293 839 448 L869 431 Q783 266 657 156 Q680 89 710 42 Q770 -50 820 -52 Q861 -44 903 156 L933 136 Q911 42 889 -13 Q859 -86 822 -86 Q758 -86 693 8 Q659 59 630 134 Q524 51 399 4 L380 35 Q514 83 618 167 Q597 230 583 288 Q561 373 549 501 L399 473 L394 507 L546 535 Q534 658 534 812 L568 812 Q568 657 578 541 L901 601 ZM381 366 Q316 331 239 297 L239 -10 Q239 -89 170 -89 L84 -89 L77 -56 Q133 -58 158 -58 Q206 -58 206 -1 L206 283 Q120 249 53 228 L43 263 Q130 286 206 317 L206 582 L55 582 L55 615 L206 615 L206 809 L239 809 L239 615 L377 615 L377 582 L239 582 L239 330 Q315 364 381 400 L381 366 ZM717 813 Q770 750 816 673 L785 658 Q736 738 686 798 L717 813 Z" /><glyph glyph-name="uni6280" unicode="&#x6280;" d="M73 -84 L66 -51 Q107 -54 143 -54 Q193 -54 193 -2 L193 281 Q123 251 49 227 L41 261 Q117 283 193 314 L193 582 L59 582 L59 615 L193 615 L193 811 L227 811 L227 615 L346 615 L346 582 L227 582 L227 329 Q295 361 350 393 L350 360 Q295 328 227 296 L227 -10 Q227 -84 155 -84 L73 -84 ZM394 654 L645 654 L645 810 L679 810 L679 654 L931 654 L931 621 L679 621 L679 425 L890 425 L890 393 Q831 217 697 92 Q805 -1 961 -67 L943 -95 Q782 -24 674 71 Q551 -34 374 -97 L357 -67 Q531 -7 650 93 Q513 221 466 391 L412 391 L412 425 L645 425 L645 621 L394 621 L394 654 ZM499 391 Q544 233 673 113 Q799 231 855 391 L499 391 Z" /><glyph glyph-name="uni6298" unicode="&#x6298;" d="M909 771 Q733 701 511 692 L511 475 L940 475 L940 442 L774 442 L774 -103 L739 -103 L739 442 L511 442 L511 377 Q502 84 366 -91 L342 -66 Q468 94 477 377 L477 720 Q706 726 892 802 L909 771 ZM90 -84 L83 -51 Q128 -54 168 -54 Q221 -54 221 5 L221 285 Q132 254 60 235 L52 268 Q138 289 221 319 L221 582 L65 582 L65 615 L221 615 L221 811 L254 811 L254 615 L392 615 L392 582 L254 582 L254 331 Q328 360 398 394 L398 360 Q328 326 254 297 L254 -4 Q254 -84 180 -84 L90 -84 Z" /><glyph glyph-name="uni6307" unicode="&#x6307;" d="M892 352 L892 -91 L857 -91 L857 -33 L490 -33 L490 -95 L456 -95 L456 352 L892 352 ZM490 -1 L857 -1 L857 145 L490 145 L490 -1 ZM490 177 L857 177 L857 321 L490 321 L490 177 ZM492 533 Q492 480 544 480 L802 480 Q844 480 860 498 Q882 523 889 634 L921 625 Q912 504 885 471 Q860 448 808 448 L533 448 Q459 448 459 526 L459 809 L492 809 L492 665 Q684 706 876 785 L895 758 Q684 671 492 633 L492 533 ZM74 -86 L67 -53 Q118 -56 166 -56 Q213 -56 213 -5 L213 277 Q133 248 56 226 L48 260 Q132 283 213 311 L213 574 L65 574 L65 607 L213 607 L213 808 L246 808 L246 607 L370 607 L370 574 L246 574 L246 324 Q326 356 388 388 L388 353 Q330 324 246 289 L246 -14 Q246 -86 178 -86 L74 -86 Z" /><glyph glyph-name="uni6392" unicode="&#x6392;" d="M538 811 L571 811 L571 -95 L538 -95 L538 137 L323 137 L323 169 L538 169 L538 376 L379 376 L379 408 L538 408 L538 608 L367 608 L367 640 L538 640 L538 811 ZM62 -86 L55 -53 Q117 -55 144 -55 Q191 -55 191 -3 L191 272 Q122 243 60 222 L52 256 Q124 277 191 306 L191 574 L70 574 L70 607 L191 607 L191 809 L225 809 L225 607 L327 607 L327 574 L225 574 L225 321 Q273 343 340 382 L340 347 Q283 313 225 287 L225 -11 Q225 -86 156 -86 L62 -86 ZM726 811 L760 811 L760 640 L945 640 L945 608 L760 608 L760 408 L928 408 L928 376 L760 376 L760 169 L952 169 L952 137 L760 137 L760 -95 L726 -95 L726 811 Z" /><glyph glyph-name="uni63A5" unicode="&#x63a5;" d="M513 642 Q557 565 590 482 L708 482 Q750 557 785 653 L818 641 Q785 551 743 482 L931 482 L931 449 L383 449 L383 482 L555 482 Q521 563 484 628 L513 642 ZM643 816 Q661 775 680 711 L913 711 L913 679 L406 679 L406 711 L646 711 Q626 773 608 810 L643 816 ZM74 -86 L67 -53 Q125 -55 150 -55 Q197 -55 197 -1 L197 287 Q132 260 49 235 L41 268 Q120 289 197 321 L197 574 L60 574 L60 607 L197 607 L197 809 L231 809 L231 607 L329 607 L329 574 L231 574 L231 335 Q286 359 337 388 L337 353 Q287 326 231 301 L231 -9 Q231 -86 162 -86 L74 -86 ZM628 398 Q602 336 584 299 L947 299 L947 265 L826 265 Q805 133 718 49 Q834 -6 940 -71 L921 -99 Q819 -36 692 25 Q599 -53 372 -98 L359 -67 Q560 -28 658 42 Q572 84 448 134 Q492 197 530 265 L370 265 L370 299 L548 299 Q576 354 595 402 L628 398 ZM566 265 Q528 200 490 148 Q589 110 686 64 Q769 139 793 265 L566 265 Z" /><glyph glyph-name="uni641C" unicode="&#x641c;" d="M435 549 L435 427 L633 427 L633 815 L666 815 L666 427 L862 427 L862 553 L737 553 L737 584 L862 584 L862 726 L742 726 L742 757 L894 757 L894 396 L666 396 L666 271 L899 271 L899 241 Q833 117 685 32 Q801 -28 953 -60 L940 -92 Q768 -56 650 13 Q524 -51 343 -94 L325 -64 Q494 -27 618 32 Q487 116 423 240 L382 240 L382 271 L633 271 L633 396 L402 396 L402 733 Q478 756 546 798 L566 771 Q513 740 435 713 L435 580 L563 580 L563 549 L435 549 ZM459 240 Q521 127 653 50 Q795 128 862 240 L459 240 ZM70 -86 L63 -53 Q111 -56 153 -56 Q195 -56 195 -17 L195 280 Q136 257 63 234 L56 266 Q135 287 195 312 L195 574 L71 574 L71 607 L195 607 L195 802 L229 802 L229 607 L339 607 L339 574 L229 574 L229 326 Q284 351 346 385 L346 350 Q284 317 229 294 L229 -25 Q229 -86 165 -86 L70 -86 Z" /><glyph glyph-name="uni642D" unicode="&#x642d;" d="M70 -80 L63 -47 Q107 -50 145 -50 Q202 -50 202 7 L202 292 Q130 261 55 238 L46 270 Q131 295 202 325 L202 582 L60 582 L60 615 L202 615 L202 814 L236 814 L236 615 L344 615 L344 582 L236 582 L236 340 Q298 369 347 398 L347 363 Q288 330 236 307 L236 -1 Q236 -80 157 -80 L70 -80 ZM360 715 L501 715 L501 805 L534 805 L534 715 L735 715 L735 805 L769 805 L769 715 L919 715 L919 682 L769 682 L769 590 L735 590 L735 682 L534 682 L534 587 L501 587 L501 682 L360 682 L360 715 ZM493 365 L790 365 L790 334 L493 334 L493 365 ZM836 219 L836 -95 L803 -95 L803 -41 L475 -41 L475 -95 L441 -95 L441 219 L836 219 ZM475 -9 L803 -9 L803 187 L475 187 L475 -9 ZM652 586 Q742 423 960 301 L941 272 Q736 387 637 554 Q518 358 337 252 L319 279 Q514 396 621 586 L652 586 Z" /><glyph glyph-name="uni64B0" unicode="&#x64b0;" d="M510 413 L543 413 L543 323 L743 323 L743 413 L777 413 L777 323 L914 323 L914 291 L777 291 L777 151 L951 151 L951 119 L339 119 L339 151 L510 151 L510 291 L383 291 L383 323 L510 323 L510 413 ZM543 151 L743 151 L743 291 L543 291 L543 151 ZM734 70 Q847 15 946 -67 L928 -95 Q828 -9 717 44 L734 70 ZM70 -94 L63 -61 Q99 -64 132 -64 Q177 -64 177 -8 L177 283 Q114 256 48 235 L40 268 Q100 286 177 317 L177 582 L59 582 L59 615 L177 615 L177 809 L210 809 L210 615 L313 615 L313 582 L210 582 L210 331 Q262 356 321 390 L321 356 Q272 327 210 298 L210 -16 Q210 -94 144 -94 L70 -94 ZM591 779 L591 605 L408 605 L408 515 Q408 480 440 480 L529 480 Q554 480 563 497 Q571 512 575 555 L604 547 Q599 501 589 479 Q574 453 534 451 L434 451 Q378 451 378 510 L378 779 L591 779 ZM408 635 L560 635 L560 750 L408 750 L408 635 ZM897 779 L897 605 L710 605 L710 519 Q710 480 744 480 L860 480 Q883 480 892 498 Q900 515 904 562 L933 553 Q929 507 919 481 Q904 453 865 451 L738 451 Q680 451 680 514 L680 779 L897 779 ZM710 635 L866 635 L866 750 L710 750 L710 635 ZM578 50 Q492 -33 364 -97 L344 -70 Q466 -11 554 72 L578 50 Z" /><glyph glyph-name="uni653B" unicode="&#x653b;" d="M222 667 L62 667 L62 701 L423 701 L423 667 L255 667 L255 138 Q354 170 432 202 L432 167 Q263 98 64 53 L56 87 Q132 103 222 128 L222 667 ZM533 613 Q513 548 484 483 Q549 320 664 184 Q793 364 799 613 L533 613 ZM832 613 Q824 343 687 158 Q799 32 955 -68 L933 -94 Q776 9 666 132 Q552 -6 366 -96 L348 -66 Q536 24 644 157 Q531 291 466 447 Q432 383 386 326 L364 351 Q500 524 546 817 L580 811 Q567 732 543 646 L933 646 L933 613 L832 613 Z" /><glyph glyph-name="uni653E" unicode="&#x653e;" d="M57 648 L276 648 Q243 737 201 807 L236 813 Q271 747 310 648 L464 648 L464 615 L209 615 L209 512 Q209 483 207 431 L402 431 Q402 82 387 4 Q374 -80 278 -80 L211 -79 L202 -47 Q256 -49 272 -49 Q342 -49 354 7 Q369 78 369 398 L205 398 Q185 70 67 -92 L40 -69 Q173 112 176 512 L176 615 L57 615 L57 648 ZM602 616 Q588 570 569 528 Q620 330 706 189 Q809 368 813 616 L602 616 ZM688 159 Q602 298 550 485 Q520 425 477 367 L455 392 Q572 551 614 824 L649 818 Q636 737 612 649 L931 649 L931 616 L846 616 Q840 345 726 159 Q823 12 961 -67 L941 -95 Q804 -16 707 129 Q616 -3 468 -94 L449 -65 Q602 26 688 159 Z" /><glyph glyph-name="uni6570" unicode="&#x6570;" d="M645 613 L627 544 Q670 345 743 202 Q820 376 823 613 L645 613 ZM727 167 Q655 305 610 489 Q577 392 537 323 L516 349 Q611 523 644 816 L679 810 Q667 720 652 646 L934 646 L934 613 L857 613 Q851 348 762 167 Q846 16 963 -63 L943 -92 Q826 -9 745 133 Q669 -3 548 -92 L529 -64 Q655 28 727 167 ZM285 344 Q272 306 258 273 L477 273 L477 244 Q434 132 344 53 Q433 15 510 -29 L491 -56 Q410 -11 317 31 Q215 -45 65 -92 L48 -63 Q191 -20 284 46 Q218 75 133 107 Q177 179 208 242 L69 242 L69 273 L223 273 Q241 316 252 347 L285 344 ZM312 67 Q401 141 443 242 L244 242 Q216 182 176 121 Q243 97 312 67 ZM127 786 Q169 722 195 658 L167 645 Q134 722 97 776 L127 786 ZM486 782 Q455 710 408 645 L380 659 Q429 729 457 796 L486 782 ZM72 609 L276 609 L276 811 L309 811 L309 609 L506 609 L506 578 L309 578 L309 562 Q398 508 485 442 L467 415 Q366 496 309 534 L309 374 L276 374 L276 578 L267 578 Q219 454 75 366 L58 395 Q195 473 239 578 L72 578 L72 609 Z" /><glyph glyph-name="uni65B0" unicode="&#x65b0;" d="M914 767 Q779 704 608 695 L608 482 L964 482 L964 449 L837 449 L837 -101 L804 -101 L804 449 L608 449 L608 302 Q601 54 497 -95 L472 -69 Q566 64 574 302 L574 723 Q752 728 897 798 L914 767 ZM65 714 L281 714 Q252 773 215 820 L249 826 Q284 780 315 714 L507 714 L507 680 L65 680 L65 714 ZM56 487 L185 487 Q161 559 119 622 L151 633 Q187 575 218 487 L348 487 Q388 555 419 638 L451 627 Q420 550 380 487 L514 487 L514 454 L307 454 L307 307 L496 307 L496 275 L307 275 L307 -25 Q307 -100 239 -100 L183 -100 L176 -67 Q212 -69 228 -69 Q273 -69 273 -16 L273 275 L70 275 L70 307 L273 307 L273 454 L56 454 L56 487 ZM191 197 Q148 46 68 -67 L39 -48 Q119 61 158 204 L191 197 ZM402 212 Q456 113 487 26 L458 15 Q420 117 372 204 L402 212 Z" /><glyph glyph-name="uni2F45" unicode="&#x2f45;&#x65b9;" d="M77 653 L520 653 Q489 732 440 802 L473 814 Q517 750 556 653 L936 653 L936 619 L399 619 L389 423 L387 404 L806 404 Q805 152 792 61 Q768 -81 650 -87 Q602 -87 534 -84 L523 -53 Q621 -55 646 -55 Q744 -50 762 80 Q771 161 771 371 L383 371 Q366 240 311 135 Q237 11 107 -94 L82 -71 Q241 64 298 184 Q349 303 358 448 Q363 543 365 619 L77 619 L77 653 Z" /><glyph glyph-name="uni65F6" unicode="&#x65f6;" d="M358 728 L358 9 L325 9 L325 84 L132 84 L132 -14 L98 -14 L98 728 L358 728 ZM132 117 L325 117 L325 397 L132 397 L132 117 ZM132 430 L325 430 L325 696 L132 696 L132 430 ZM493 435 Q589 295 641 186 L613 166 Q559 280 466 418 L493 435 ZM566 -85 L559 -52 Q675 -54 726 -54 Q784 -54 784 6 L784 582 L416 582 L416 615 L784 615 L784 804 L819 804 L819 615 L958 615 L958 582 L819 582 L819 -2 Q819 -85 737 -85 L566 -85 Z" /><glyph glyph-name="uni65FA" unicode="&#x65fa;" d="M669 731 L442 731 L442 765 L926 765 L926 731 L702 731 L702 393 L907 393 L907 360 L702 360 L702 -15 L938 -15 L938 -49 L418 -49 L418 -15 L669 -15 L669 360 L457 360 L457 393 L669 393 L669 731 ZM350 732 L350 21 L316 21 L316 89 L129 89 L129 0 L96 0 L96 732 L350 732 ZM129 123 L316 123 L316 392 L129 392 L129 123 ZM129 426 L316 426 L316 699 L129 699 L129 426 Z" /><glyph glyph-name="uni66F4" unicode="&#x66f4;" d="M81 763 L920 763 L920 730 L518 730 L518 615 L834 615 L834 243 L509 243 Q491 125 438 57 Q656 -45 957 -57 L948 -89 Q639 -77 416 33 Q318 -62 68 -92 L53 -61 Q293 -35 385 48 Q282 104 201 176 L228 195 Q310 122 407 72 Q457 136 475 243 L170 243 L170 615 L484 615 L484 730 L81 730 L81 763 ZM801 274 L801 415 L518 415 L518 361 Q517 326 513 274 L801 274 ZM479 274 Q484 321 484 361 L484 415 L204 415 L204 274 L479 274 ZM204 446 L484 446 L484 583 L204 583 L204 446 ZM518 583 L518 446 L801 446 L801 583 L518 583 Z" /><glyph glyph-name="uni6700" unicode="&#x6700;" d="M64 413 L938 413 L938 383 L479 383 L479 36 Q503 40 547 46 L547 16 L479 7 L479 -96 L445 -96 L445 3 Q295 -14 75 -25 L70 7 Q138 9 172 11 L172 383 L64 383 L64 413 ZM205 13 Q345 21 445 32 L445 124 L205 124 L205 13 ZM205 153 L445 153 L445 252 L205 252 L205 153 ZM205 282 L445 282 L445 383 L205 383 L205 282 ZM205 767 L801 767 L801 504 L205 504 L205 767 ZM767 534 L767 623 L238 623 L238 534 L767 534 ZM238 651 L767 651 L767 738 L238 738 L238 651 ZM549 259 L549 291 L877 291 L877 261 Q843 134 757 44 Q834 -19 936 -63 L918 -91 Q809 -39 736 23 Q663 -45 558 -92 L539 -65 Q641 -21 711 45 Q614 139 581 259 L549 259 ZM732 66 Q811 150 843 259 L613 259 Q644 149 732 66 Z" /><glyph glyph-name="uni6709" unicode="&#x6709;" d="M330 474 L330 332 L766 332 L766 474 L330 474 ZM766 299 L330 299 L330 160 L766 160 L766 299 ZM766 128 L330 128 L330 -93 L297 -93 L297 473 Q199 342 69 238 L48 266 Q258 433 366 654 L74 654 L74 687 L381 687 Q408 749 430 817 L465 813 Q443 742 419 687 L938 687 L938 654 L404 654 Q367 574 320 505 L799 505 L799 -34 Q799 -91 734 -93 L622 -93 L613 -61 Q693 -63 723 -63 Q766 -63 766 -24 L766 128 Z" /><glyph glyph-name="uni670B" unicode="&#x670b;" d="M190 483 L190 287 L189 269 L421 269 L421 483 L190 483 ZM421 516 L421 730 L190 730 L190 516 L421 516 ZM187 236 Q173 38 92 -92 L66 -68 Q153 79 156 303 L156 763 L455 763 L455 -22 Q455 -84 391 -84 L279 -84 L270 -51 L380 -52 Q421 -52 421 -9 L421 236 L187 236 ZM618 483 L618 278 L617 269 L857 269 L857 483 L618 483 ZM857 516 L857 730 L618 730 L618 516 L857 516 ZM616 236 Q607 37 532 -92 L506 -68 Q582 69 585 284 L585 763 L892 763 L892 -19 Q892 -84 826 -84 L707 -84 L698 -51 L815 -52 Q857 -52 857 -7 L857 236 L616 236 Z" /><glyph glyph-name="uni670D" unicode="&#x670d;" d="M165 492 L165 292 L362 292 L362 492 L165 492 ZM362 523 L362 725 L165 725 L165 523 L362 523 ZM164 259 Q158 42 98 -96 L72 -72 Q133 73 134 295 L134 758 L395 758 L395 -17 Q395 -93 324 -93 L244 -93 L236 -61 Q292 -63 314 -63 Q362 -63 362 -6 L362 259 L164 259 ZM537 358 L537 -96 L504 -96 L504 759 L884 759 Q884 589 866 535 Q851 476 756 476 L681 476 L672 507 L740 506 Q779 506 803 513 Q823 519 834 545 Q848 588 850 726 L537 726 L537 389 L882 389 L882 359 Q848 190 768 76 Q847 -3 955 -62 L938 -91 Q825 -29 748 50 Q678 -38 579 -92 L561 -64 Q659 -10 726 74 Q615 197 579 358 L537 358 ZM610 358 Q645 213 745 100 Q819 208 850 358 L610 358 Z" /><glyph glyph-name="uni672C" unicode="&#x672c;" d="M77 615 L483 615 L483 809 L517 809 L517 615 L922 615 L922 582 L566 582 Q672 319 951 119 L928 89 Q641 308 536 582 L517 582 L517 156 L746 156 L746 123 L517 123 L517 -95 L483 -95 L483 123 L262 123 L262 156 L483 156 L483 582 L464 582 Q350 272 63 77 L44 107 Q321 290 435 582 L77 582 L77 615 Z" /><glyph glyph-name="uni673A" unicode="&#x673a;" d="M63 603 L226 603 L226 811 L260 811 L260 603 L398 603 L398 570 L260 570 L260 506 Q331 429 409 325 L390 295 Q317 405 260 471 L260 -90 L226 -90 L226 486 Q168 301 61 161 L46 196 Q175 361 226 570 L63 570 L63 603 ZM369 -69 Q438 30 465 146 Q485 248 485 382 L485 758 L775 758 L775 6 Q775 -38 812 -38 L849 -38 Q873 -38 890 -31 Q908 -20 914 11 Q920 50 920 175 L953 165 Q953 75 946 12 Q940 -40 915 -58 Q894 -70 849 -70 L813 -70 Q740 -70 740 6 L740 724 L519 724 L519 382 Q519 221 493 120 Q466 7 396 -94 L369 -69 Z" /><glyph glyph-name="uni6784" unicode="&#x6784;" d="M576 811 Q563 732 541 654 L900 654 Q900 150 882 36 Q865 -85 756 -85 L649 -83 L641 -52 Q725 -54 750 -54 Q833 -54 848 31 Q866 136 866 621 L531 621 Q488 499 426 407 L405 435 Q507 591 543 815 L576 811 ZM442 158 Q486 182 594 491 L625 480 Q542 242 496 172 Q624 198 711 218 Q682 299 658 352 L688 362 Q742 239 780 107 L750 93 Q734 149 720 191 Q593 159 449 132 L442 158 ZM254 -91 L221 -91 L221 487 Q164 299 56 155 L41 190 Q170 358 219 570 L62 570 L62 603 L221 603 L221 811 L254 811 L254 603 L391 603 L391 570 L254 570 L254 489 Q327 412 407 307 L388 279 Q312 384 254 450 L254 -91 Z" /><glyph glyph-name="uni679C" unicode="&#x679c;" d="M182 762 L811 762 L811 404 L517 404 L517 283 L922 283 L922 250 L564 250 Q670 92 943 -30 L920 -59 Q638 79 533 250 L517 250 L517 -96 L483 -96 L483 250 L466 250 Q354 62 73 -58 L55 -28 Q325 80 436 250 L78 250 L78 283 L483 283 L483 404 L182 404 L182 762 ZM776 435 L776 566 L517 566 L517 435 L776 435 ZM483 435 L483 566 L217 566 L217 435 L483 435 ZM217 597 L483 597 L483 730 L217 730 L217 597 ZM517 730 L517 597 L776 597 L776 730 L517 730 Z" /><glyph glyph-name="uni67DC" unicode="&#x67dc;" d="M876 206 L495 206 L495 -25 L939 -25 L939 -58 L461 -58 L461 758 L918 758 L918 724 L495 724 L495 524 L876 524 L876 206 ZM495 491 L495 238 L843 238 L843 491 L495 491 ZM256 -91 L222 -91 L222 486 Q167 297 60 150 L45 185 Q172 356 220 571 L61 571 L61 604 L222 604 L222 811 L256 811 L256 604 L390 604 L390 571 L256 571 L256 497 Q334 409 409 303 L390 274 Q312 392 256 459 L256 -91 Z" /><glyph glyph-name="uni67E5" unicode="&#x67e5;" d="M215 418 L787 418 L787 81 L215 81 L215 418 ZM754 113 L754 233 L249 233 L249 113 L754 113 ZM249 264 L754 264 L754 386 L249 386 L249 264 ZM96 711 L485 711 L485 814 L519 814 L519 711 L908 711 L908 677 L570 677 Q685 538 948 460 L934 429 Q649 523 538 677 L519 677 L519 445 L485 445 L485 677 L466 677 Q348 526 67 428 L49 458 Q320 544 435 677 L96 677 L96 711 ZM76 -29 L925 -29 L925 -62 L76 -62 L76 -29 Z" /><glyph glyph-name="uni6837" unicode="&#x6837;" d="M643 582 L406 582 L406 614 L708 614 Q767 706 807 813 L840 801 Q798 696 742 614 L922 614 L922 582 L678 582 L678 399 L893 399 L893 367 L678 367 L678 180 L948 180 L948 147 L678 147 L678 -107 L643 -107 L643 147 L383 147 L383 180 L643 180 L643 367 L437 367 L437 399 L643 399 L643 582 ZM244 -96 L211 -96 L211 499 Q162 316 62 170 L44 202 Q157 359 205 570 L73 570 L73 603 L211 603 L211 811 L244 811 L244 603 L357 603 L357 570 L244 570 L244 489 Q317 406 380 317 L361 290 Q295 390 244 450 L244 -96 ZM505 805 Q556 727 596 644 L566 630 Q521 723 475 792 L505 805 Z" /><glyph glyph-name="uni683C" unicode="&#x683c;" d="M241 -91 L208 -91 L208 483 Q157 306 60 166 L45 201 Q161 361 206 570 L61 570 L61 603 L208 603 L208 811 L241 811 L241 603 L364 603 L364 570 L241 570 L241 504 Q310 422 372 332 L352 303 Q284 410 241 466 L241 -91 ZM868 264 L868 -93 L835 -93 L835 -40 L494 -40 L494 -93 L461 -93 L461 264 L868 264 ZM494 -6 L835 -6 L835 231 L494 231 L494 -6 ZM603 806 Q585 761 562 714 L862 714 L862 687 Q800 557 691 460 Q801 370 954 308 L939 278 Q777 348 668 440 Q550 343 379 273 L358 300 Q525 365 644 461 Q562 538 512 626 Q464 556 407 497 L386 522 Q506 642 569 815 L603 806 ZM667 480 Q768 571 825 681 L545 681 L529 653 Q579 559 667 480 Z" /><glyph glyph-name="uni2E9F" unicode="&#x2e9f;&#x6bcd;" d="M147 87 Q175 233 194 417 L58 417 L58 451 L197 451 Q211 595 216 765 L817 765 L807 451 L944 451 L944 417 L806 417 Q798 196 793 121 L919 121 L919 87 L790 87 Q787 49 783 29 Q769 -31 728 -61 Q689 -85 609 -85 L510 -85 L499 -51 Q577 -53 604 -53 Q653 -53 690 -41 Q731 -25 748 27 Q751 39 757 87 L147 87 ZM760 121 Q768 253 773 417 L228 417 Q214 264 188 121 L760 121 ZM774 451 Q780 605 782 733 L247 733 Q241 569 231 451 L774 451 ZM430 657 Q521 598 598 518 L576 494 Q498 575 405 636 L430 657 ZM411 358 Q508 286 585 204 L563 180 Q479 269 389 333 L411 358 Z" /><glyph glyph-name="uni6BCF" unicode="&#x6bcf;" d="M253 685 Q184 568 83 473 L60 500 Q205 632 281 816 L315 808 Q290 752 272 719 L914 719 L914 685 L253 685 ZM412 258 Q520 216 611 151 L595 125 Q492 197 395 234 L412 258 ZM182 55 Q203 167 219 304 L45 304 L45 338 L222 338 Q233 459 236 574 L830 574 Q827 463 822 338 L957 338 L957 304 L821 304 Q814 136 810 88 L931 88 L931 55 L807 55 Q803 10 799 -5 Q785 -52 747 -76 Q709 -95 638 -95 L532 -95 L521 -62 Q605 -64 633 -64 Q678 -64 712 -55 Q749 -43 764 -1 Q768 9 774 55 L182 55 ZM777 88 Q781 136 788 304 L252 304 Q240 184 222 88 L777 88 ZM789 338 L796 541 L268 541 Q263 422 255 338 L789 338 ZM423 497 Q531 453 617 392 L601 366 Q506 433 405 472 L423 497 Z" /><glyph glyph-name="uni2F54" unicode="&#x2f54;&#x6c34;" d="M71 545 L388 545 L388 517 Q302 185 69 15 L48 43 Q269 206 353 511 L71 511 L71 545 ZM883 625 Q759 472 628 374 Q748 169 952 34 L932 3 Q637 209 525 523 L525 -18 Q525 -91 453 -91 L324 -91 L317 -58 Q405 -60 441 -60 Q491 -60 491 -9 L491 818 L525 818 L525 611 Q558 497 612 401 Q751 510 856 645 L883 625 Z" /><glyph glyph-name="uni6C99" unicode="&#x6c99;" d="M876 346 Q741 4 345 -98 L326 -67 Q718 29 846 365 L876 346 ZM775 713 Q870 580 957 416 L927 401 Q843 565 745 698 L775 713 ZM504 684 Q445 419 341 279 L316 303 Q418 449 472 693 L504 684 ZM617 809 L651 809 L651 208 L617 208 L617 809 ZM99 789 Q213 708 288 627 L264 602 Q191 682 75 766 L99 789 ZM81 544 Q188 466 258 388 L233 363 Q165 441 58 521 L81 544 ZM266 257 Q194 71 107 -91 L73 -77 Q168 94 235 269 L266 257 Z" /><glyph glyph-name="uni6CA1" unicode="&#x6ca1;" d="M110 790 Q215 715 285 639 L262 616 Q197 687 85 767 L110 790 ZM82 550 Q181 475 247 400 L224 376 Q160 449 57 527 L82 550 ZM268 272 Q202 90 113 -84 L80 -70 Q173 107 238 284 L268 272 ZM351 335 L351 368 L860 368 L860 336 Q793 177 651 71 Q777 -19 960 -67 L942 -97 Q749 -43 624 51 Q496 -37 314 -94 L297 -63 Q469 -10 596 73 Q467 181 407 335 L351 335 ZM623 92 Q762 196 823 335 L440 335 Q500 191 623 92 ZM454 763 L781 763 L781 536 Q781 499 827 499 L941 499 L941 465 L822 465 Q747 465 747 532 L747 730 L488 730 L488 675 Q488 512 335 423 L312 449 Q454 528 454 672 L454 763 Z" /><glyph glyph-name="uni6CFD" unicode="&#x6cfd;" d="M378 763 L858 763 L858 733 Q801 606 666 517 Q786 453 965 427 L952 396 Q759 424 636 498 Q516 429 345 384 L328 414 Q491 454 605 518 Q483 601 432 731 L378 731 L378 763 ZM465 731 Q515 611 634 536 Q763 617 820 731 L465 731 ZM391 303 L622 303 L622 388 L655 388 L655 303 L886 303 L886 271 L655 271 L655 124 L941 124 L941 90 L655 90 L655 -94 L622 -94 L622 90 L336 90 L336 124 L622 124 L622 271 L391 271 L391 303 ZM107 802 Q231 712 314 624 L290 600 Q213 685 82 779 L107 802 ZM82 568 Q197 483 282 392 L258 368 Q187 448 58 544 L82 568 ZM293 276 Q214 87 116 -81 L83 -66 Q185 106 264 289 L293 276 Z" /><glyph glyph-name="uni6D41" unicode="&#x6d41;" d="M348 445 L356 448 Q419 487 524 664 L320 664 L320 696 L618 696 Q595 762 564 818 L598 825 Q627 768 652 696 L925 696 L925 664 L559 664 Q470 505 404 447 Q619 458 819 481 Q791 521 736 591 L763 608 Q867 479 914 393 L887 373 Q864 417 839 452 Q626 429 356 415 L348 445 ZM112 791 Q208 726 276 658 L251 633 Q189 700 88 768 L112 791 ZM88 555 Q190 477 255 402 L230 377 Q166 453 64 533 L88 555 ZM255 285 Q194 84 122 -84 L91 -70 Q166 102 225 297 L255 285 ZM574 350 L609 350 L609 -75 L574 -75 L574 350 ZM446 351 Q440 157 407 67 Q372 -26 286 -94 L265 -67 Q343 -5 376 80 Q406 167 412 351 L446 351 ZM806 -85 Q744 -85 744 -22 L744 349 L777 349 L777 -18 Q777 -52 805 -53 L863 -53 Q898 -52 906 -26 Q914 11 914 97 L945 86 Q945 -28 929 -58 Q914 -84 865 -85 L806 -85 Z" /><glyph glyph-name="uni6D77" unicode="&#x6d77;&#xfa45;" d="M421 688 Q365 594 296 527 L273 553 Q384 660 445 816 L478 808 Q460 762 439 721 L926 721 L926 688 L421 688 ZM257 339 L373 339 Q385 456 388 577 L869 577 Q865 444 860 339 L955 339 L955 306 L859 306 Q853 167 847 88 L939 88 L939 56 L844 56 Q838 8 835 -4 Q820 -50 777 -75 Q734 -94 656 -94 L581 -94 L571 -61 Q631 -63 652 -63 Q701 -63 740 -54 Q781 -42 800 0 Q804 9 810 56 L332 56 Q354 165 370 306 L257 306 L257 339 ZM402 306 Q390 190 370 88 L813 88 Q821 195 826 306 L402 306 ZM828 339 L835 545 L418 545 Q413 426 405 339 L828 339 ZM564 504 Q642 450 693 396 L671 373 Q623 424 542 482 L564 504 ZM558 262 Q632 206 684 146 L661 123 Q614 179 535 241 L558 262 ZM98 786 Q189 729 258 665 L234 641 Q173 699 74 762 L98 786 ZM84 542 Q182 477 242 418 L218 393 Q159 452 60 519 L84 542 ZM246 251 Q180 69 101 -81 L69 -68 Q157 101 217 262 L246 251 Z" /><glyph glyph-name="uni6E2F" unicode="&#x6e2f;" d="M352 692 L484 692 L484 810 L518 810 L518 692 L722 692 L722 810 L756 810 L756 692 L897 692 L897 659 L756 659 L756 508 L928 508 L928 474 L742 474 Q807 343 956 270 L942 241 Q775 329 710 474 L524 474 Q467 326 292 218 L273 248 Q440 346 492 474 L313 474 L313 508 L484 508 L484 659 L352 659 L352 692 ZM518 508 L722 508 L722 659 L518 659 L518 508 ZM782 334 L782 133 L474 133 L474 4 Q474 -42 522 -44 L804 -44 Q843 -44 862 -16 Q876 9 882 88 L914 77 Q908 4 894 -31 Q870 -75 810 -77 L515 -77 Q440 -77 440 -3 L440 334 L782 334 ZM474 165 L749 165 L749 303 L474 303 L474 165 ZM101 792 Q215 708 290 624 L266 600 Q195 679 77 769 L101 792 ZM84 545 Q190 465 260 382 L236 357 Q171 434 60 522 L84 545 ZM244 245 Q184 65 109 -91 L76 -77 Q156 88 214 257 L244 245 Z" /><glyph glyph-name="uni6E38" unicode="&#x6e38;" d="M668 625 Q630 524 570 450 L549 475 Q649 603 685 823 L719 817 Q704 732 680 659 L953 659 L953 625 L668 625 ZM83 794 Q167 728 231 655 L206 630 Q151 698 59 771 L83 794 ZM76 540 Q168 469 231 397 L206 373 Q148 442 53 517 L76 540 ZM218 271 Q160 89 84 -82 L52 -69 Q129 96 188 283 L218 271 ZM346 609 L254 609 L254 642 L412 642 Q390 734 362 813 L396 819 Q420 751 446 642 L570 642 L570 609 L379 609 L379 523 Q379 475 376 428 L547 428 Q547 104 532 26 Q523 -77 449 -77 L375 -76 L367 -45 L448 -46 Q492 -46 500 31 Q511 94 513 394 L374 394 Q353 69 239 -94 L214 -71 Q343 115 346 523 L346 609 ZM660 483 L917 483 L917 452 Q868 385 804 320 L804 234 L956 234 L956 202 L804 202 L804 -8 Q804 -81 738 -81 L656 -81 L648 -48 L726 -49 Q770 -49 770 4 L770 202 L600 202 L600 234 L770 234 L770 327 Q847 408 878 452 L660 452 L660 483 Z" /><glyph glyph-name="uni6F14" unicode="&#x6f14;" d="M930 727 L930 560 L896 560 L896 695 L364 695 L364 561 L330 561 L330 727 L607 727 Q593 771 572 811 L607 817 Q621 787 642 727 L930 727 ZM397 587 L861 587 L861 555 L646 555 L646 457 L887 457 L887 119 L371 119 L371 457 L612 457 L612 555 L397 555 L397 587 ZM853 150 L853 272 L646 272 L646 150 L853 150 ZM612 150 L612 272 L405 272 L405 150 L612 150 ZM405 302 L612 302 L612 425 L405 425 L405 302 ZM646 425 L646 302 L853 302 L853 425 L646 425 ZM719 66 Q851 11 956 -64 L937 -93 Q819 -7 701 40 L719 66 ZM560 43 Q460 -37 319 -93 L299 -66 Q440 -9 535 66 L560 43 ZM96 790 Q204 720 281 643 L257 620 Q189 688 72 767 L96 790 ZM77 546 Q179 475 252 400 L227 376 Q162 447 54 522 L77 546 ZM276 277 Q200 89 104 -88 L71 -73 Q171 103 246 289 L276 277 Z" /><glyph glyph-name="uni70E6" unicode="&#x70e6;" d="M142 614 Q136 467 86 330 L56 339 Q104 471 110 617 L142 614 ZM427 651 Q364 563 262 477 L262 437 Q260 349 250 277 Q329 190 420 64 L400 35 Q311 165 244 240 Q205 29 82 -86 L57 -65 Q225 93 228 437 L228 800 L262 800 L262 515 Q349 590 406 677 L427 651 ZM433 759 L939 759 L939 725 L703 725 Q696 650 682 580 L887 580 L887 130 L853 130 L853 548 L517 548 L517 130 L483 130 L483 580 L647 580 Q664 656 669 725 L433 725 L433 759 ZM739 116 Q862 24 948 -73 L925 -97 Q848 -6 717 94 L739 116 ZM667 470 L700 470 L700 311 Q698 146 629 46 Q560 -46 406 -99 L388 -69 Q536 -22 606 71 Q665 163 667 311 L667 470 Z" /><glyph glyph-name="uni7269" unicode="&#x7269;" d="M553 803 Q534 712 508 638 L908 638 Q908 167 894 50 Q879 -88 741 -88 L668 -86 L659 -54 Q721 -56 740 -56 Q844 -56 861 54 Q872 146 875 604 L770 604 Q737 340 676 191 Q607 38 472 -85 L450 -58 Q580 58 643 200 Q708 348 738 604 L628 604 Q568 267 396 118 L373 144 Q540 289 597 604 L495 604 Q455 502 400 434 L375 456 Q477 580 519 812 L553 803 ZM130 556 Q109 474 73 398 L43 407 Q117 566 128 744 L158 742 Q154 669 138 590 L240 590 L240 811 L274 811 L274 590 L376 590 L376 556 L274 556 L274 269 Q308 285 372 321 L372 288 Q331 264 274 236 L274 -95 L240 -95 L240 219 Q153 179 62 150 L54 184 Q147 210 240 252 L240 556 L130 556 Z" /><glyph glyph-name="uni72C2" unicode="&#x72c2;" d="M655 730 L416 730 L416 763 L926 763 L926 730 L689 730 L689 381 L912 381 L912 347 L689 347 L689 -26 L940 -26 L940 -60 L388 -60 L388 -26 L655 -26 L655 347 L432 347 L432 381 L655 381 L655 730 ZM271 435 Q259 497 243 538 Q234 562 222 583 Q158 525 74 476 L55 505 Q144 551 206 613 Q159 694 82 760 L110 781 Q186 707 229 636 Q296 703 345 786 L374 769 Q315 674 249 608 L247 606 Q261 581 271 555 Q317 435 321 217 Q321 -9 256 -56 Q219 -81 146 -81 L100 -80 L90 -47 Q122 -49 138 -49 Q207 -49 234 -30 Q288 12 288 219 Q286 319 278 388 Q195 254 70 166 L51 194 Q189 292 271 435 Z" /><glyph glyph-name="uni73A9" unicode="&#x73a9;" d="M195 693 L56 693 L56 725 L371 725 L371 693 L230 693 L230 434 L351 434 L351 401 L230 401 L230 126 Q317 157 382 187 L382 152 Q254 92 60 36 L51 70 Q141 95 195 114 L195 401 L70 401 L70 434 L195 434 L195 693 ZM545 421 L393 421 L393 455 L922 455 L922 421 L764 421 L764 8 Q764 -47 812 -47 L857 -47 Q881 -47 894 -36 Q916 -17 922 123 L955 113 Q948 -24 926 -55 Q907 -80 865 -80 L802 -80 Q767 -80 747 -58 Q729 -34 729 0 L729 421 L578 421 L578 350 Q572 48 319 -91 L293 -68 Q541 63 545 350 L545 421 ZM428 742 L890 742 L890 708 L428 708 L428 742 Z" /><glyph glyph-name="uni7403" unicode="&#x7403;" d="M388 628 L629 628 L629 810 L662 810 L662 628 L912 628 L912 594 L662 594 L662 491 Q689 399 730 315 Q808 393 871 495 L898 475 Q824 362 745 285 Q825 133 946 22 L924 -3 Q748 160 662 405 L662 -24 Q662 -86 591 -86 L486 -86 L479 -53 Q532 -56 579 -56 Q629 -56 629 -15 L629 311 Q522 141 370 29 L352 58 Q511 168 629 360 L629 594 L388 594 L388 628 ZM420 488 Q496 386 536 312 L511 294 Q471 371 393 471 L420 488 ZM69 430 L196 430 L196 699 L56 699 L56 732 L363 732 L363 699 L230 699 L230 430 L345 430 L345 397 L230 397 L230 146 Q301 176 365 209 L365 175 Q223 100 54 52 L45 86 Q136 111 196 133 L196 397 L69 397 L69 430 ZM750 800 Q834 735 895 666 L872 643 Q820 706 728 780 L750 800 Z" /><glyph glyph-name="uni2F63" unicode="&#x2f63;&#x751f;" d="M225 576 Q165 434 72 340 L50 367 Q199 520 253 788 L287 781 Q265 682 238 609 L501 609 L501 805 L534 805 L534 609 L879 609 L879 576 L534 576 L534 304 L858 304 L858 270 L534 270 L534 -26 L942 -26 L942 -60 L71 -60 L71 -26 L501 -26 L501 270 L192 270 L192 304 L501 304 L501 576 L225 576 Z" /><glyph glyph-name="uni2F64" unicode="&#x2f64;&#x7528;" d="M192 487 L192 288 L191 276 L487 276 L487 487 L192 487 ZM189 243 Q174 44 75 -83 L50 -60 Q154 80 157 298 L157 763 L869 763 L869 19 Q869 -73 780 -73 L665 -73 L656 -39 L768 -40 Q835 -40 835 31 L835 243 L521 243 L521 -62 L487 -62 L487 243 L189 243 ZM835 276 L835 487 L521 487 L521 276 L835 276 ZM835 519 L835 729 L521 729 L521 519 L835 519 ZM487 729 L192 729 L192 519 L487 519 L487 729 Z" /><glyph glyph-name="uni7531" unicode="&#x7531;" d="M855 638 L855 -90 L820 -90 L820 -16 L180 -16 L180 -90 L145 -90 L145 638 L483 638 L483 807 L517 807 L517 638 L855 638 ZM180 17 L483 17 L483 300 L180 300 L180 17 ZM517 17 L820 17 L820 300 L517 300 L517 17 ZM180 333 L483 333 L483 605 L180 605 L180 333 ZM517 605 L517 333 L820 333 L820 605 L517 605 Z" /><glyph glyph-name="uni7535" unicode="&#x7535;" d="M180 413 L180 223 L467 223 L467 413 L180 413 ZM467 191 L180 191 L180 96 L146 96 L146 661 L467 661 L467 810 L500 810 L500 661 L827 661 L827 191 L500 191 L500 31 Q500 -47 573 -47 L818 -47 Q865 -47 887 -28 Q907 -8 914 108 L946 97 Q937 -28 913 -55 Q888 -80 823 -80 L565 -80 Q467 -80 467 26 L467 191 ZM500 223 L794 223 L794 413 L500 413 L500 223 ZM794 445 L794 627 L500 627 L500 445 L794 445 ZM467 627 L180 627 L180 445 L467 445 L467 627 Z" /><glyph glyph-name="uni754C" unicode="&#x754c;" d="M168 764 L836 764 L836 395 L624 395 Q724 254 956 176 L941 146 Q688 239 589 395 L411 395 Q309 248 62 152 L43 182 Q276 263 376 395 L168 395 L168 764 ZM802 427 L802 565 L517 565 L517 427 L802 427 ZM483 427 L483 565 L202 565 L202 427 L483 427 ZM202 596 L483 596 L483 732 L202 732 L202 596 ZM517 732 L517 596 L802 596 L802 732 L517 732 ZM373 271 Q373 156 340 75 Q293 -32 133 -98 L111 -70 Q252 -13 303 78 Q339 156 339 271 L373 271 ZM642 270 L677 270 L677 -97 L642 -97 L642 270 Z" /><glyph glyph-name="uni7565" unicode="&#x7565;" d="M874 264 L874 -92 L841 -92 L841 -39 L537 -39 L537 -92 L504 -92 L504 264 L874 264 ZM537 -6 L841 -6 L841 231 L537 231 L537 -6 ZM124 45 L124 -13 L92 -13 L92 732 L397 732 L397 -13 L365 -13 L365 45 L124 45 ZM365 77 L365 374 L260 374 L260 77 L365 77 ZM365 405 L365 700 L260 700 L260 405 L365 405 ZM230 700 L124 700 L124 405 L230 405 L230 700 ZM124 374 L124 77 L230 77 L230 374 L124 374 ZM630 807 Q613 763 589 714 L877 714 L877 686 Q818 555 714 459 Q816 375 955 319 L940 290 Q792 354 692 439 Q584 346 433 281 L412 308 Q562 371 667 461 Q585 536 536 624 Q494 563 441 510 L419 537 Q535 650 597 815 L630 807 ZM689 481 Q785 571 838 680 L571 680 L554 652 Q605 556 689 481 Z" /><glyph glyph-name="uni7597" unicode="&#x7597;" d="M364 546 L876 546 L876 512 Q779 421 653 343 L653 -12 Q653 -96 571 -96 L453 -96 L445 -64 L558 -65 Q619 -65 619 -1 L619 361 Q731 424 828 512 L364 512 L364 546 ZM229 394 L229 717 L577 717 Q558 768 531 819 L566 825 Q590 779 611 717 L924 717 L924 683 L263 683 L263 412 Q257 99 125 -90 L100 -67 Q207 81 225 336 Q147 265 48 205 L39 238 Q141 297 228 376 L229 394 ZM87 640 Q142 551 180 453 L150 441 Q110 544 58 629 L87 640 Z" /><glyph glyph-name="uni75AB" unicode="&#x75ab;" d="M354 274 L844 274 L844 245 Q785 128 656 43 Q778 -28 959 -72 L940 -101 Q749 -52 626 24 Q494 -52 307 -98 L289 -68 Q474 -26 597 43 Q475 128 425 243 L354 243 L354 274 ZM458 243 Q510 137 627 61 Q749 140 807 243 L458 243 ZM232 412 L232 721 L570 721 Q549 777 522 820 L556 826 Q580 781 604 721 L924 721 L924 687 L266 687 L266 412 Q258 96 107 -94 L81 -70 Q210 85 228 344 Q151 275 60 220 L51 254 Q147 307 231 384 L232 412 ZM89 655 Q140 567 176 466 L146 454 Q108 560 60 643 L89 655 ZM472 588 L767 588 L767 432 Q767 388 813 388 L923 388 L923 356 L809 356 Q733 356 733 428 L733 556 L506 556 L506 518 Q506 395 366 327 L344 351 Q472 410 472 515 L472 588 Z" /><glyph glyph-name="uni7684" unicode="&#x7684;" d="M388 627 L388 -34 L354 -34 L354 32 L132 32 L132 -62 L98 -62 L98 627 L186 627 Q219 714 234 812 L268 807 Q251 707 219 627 L388 627 ZM132 64 L354 64 L354 319 L132 319 L132 64 ZM132 351 L354 351 L354 593 L132 593 L132 351 ZM553 408 Q677 276 737 185 L710 165 Q646 264 526 390 L553 408 ZM907 625 Q907 161 893 46 Q879 -81 757 -81 L663 -80 L654 -48 L755 -49 Q846 -49 860 51 Q871 141 874 591 L558 591 Q516 492 456 410 L436 437 Q548 590 589 813 L622 809 Q605 714 572 625 L907 625 Z" /><glyph glyph-name="uni76C5" unicode="&#x76c5;" d="M182 700 L478 700 L478 808 L512 808 L512 700 L815 700 L815 430 L512 430 L512 294 L478 294 L478 430 L182 430 L182 700 ZM781 463 L781 667 L512 667 L512 463 L781 463 ZM478 463 L478 667 L215 667 L215 463 L478 463 ZM827 252 L827 -24 L940 -24 L940 -56 L61 -56 L61 -24 L170 -24 L170 252 L827 252 ZM203 -24 L378 -24 L378 219 L203 219 L203 -24 ZM411 -24 L584 -24 L584 219 L411 219 L411 -24 ZM617 -24 L794 -24 L794 219 L617 219 L617 -24 Z" /></font>
</defs>
</svg>
